<?xml version="1.0" encoding="UTF-8"?>
<svg xmlns="http://www.w3.org/2000/svg" width="46" height="45" viewBox="0 0 46 45" fill="none">
    <g clip-path="url(#clip0)">
        <path opacity=".3" d="M9.5 16v20L28 44.5 45.5 36V14.5L28 5.5 9.5 16z" fill="url(#paint0_linear)"></path>
        <path d="M43.718 9.93L23.286.065a.66.66 0 0 0-.573 0L2.281 9.929a.66.66 0 0 0-.372.594v23.954a.66.66 0 0 0 .372.594l20.432 9.864a.659.659 0 0 0 .573 0l20.432-9.864a.66.66 0 0 0 .373-.594V10.523a.66.66 0 0 0-.373-.594zM23 1.39l18.915 9.132-5.483 2.647a.664.664 0 0 0-.112-.07L17.533 4.03 23 1.391zm-6.955 3.384l18.888 9.119-3.869 1.867-18.88-9.114 3.86-1.872zm19.33 10.37v6.903l-3.614 1.744V16.89l3.613-1.745zm7.397 18.919L23.66 43.29V20.8l4.559-2.202a.66.66 0 1 0-.573-1.187L23 19.654l-1.828-.882a.66.66 0 1 0-.573 1.187l1.741.841v22.49L3.227 34.064v-22.49l14.555 7.026a.657.657 0 0 0 .88-.307.66.66 0 0 0-.307-.88l-14.27-6.89 6.547-3.16 19.802 9.559.009.011v7.91a.66.66 0 0 0 .945.594l4.932-2.38a.66.66 0 0 0 .373-.595v-7.953l6.08-2.935v22.49z"
              fill="#0057FF"></path>
        <path d="M8.667 31.507L5.67 30.06a.66.66 0 1 0-.573 1.187l2.998 1.448a.655.655 0 0 0 .88-.307.66.66 0 0 0-.307-.88zM11.427 29.71l-5.754-2.777A.66.66 0 1 0 5.1 28.12l5.754 2.778a.656.656 0 0 0 .88-.307.66.66 0 0 0-.307-.88z"
              fill="#0057FF"></path>
    </g>
    <defs>
        <linearGradient id="paint0_linear" x1="41.133" y1="-6.212" x2="11.817" y2="32.677"
                        gradientUnits="userSpaceOnUse">
            <stop stop-color="#0057FF"></stop>
            <stop offset="1" stop-color="#0057FF" stop-opacity="0"></stop>
        </linearGradient>
        <clipPath id="clip0">
            <path fill="#fff" transform="translate(.5)" d="M0 0h45v45H0z"></path>
        </clipPath>
    </defs>
</svg>
