<?xml version="1.0" encoding="UTF-8"?>
<svg xmlns="http://www.w3.org/2000/svg" width="472" height="471" viewBox="0 0 472 471" fill="none">
    <path d="M304.838 88.959v29.093c0 19.043-1.587 19.043-21.158 19.043-19.572 0-21.159 1.586-21.159 20.629v177.731"
          stroke="#DCE5F7" stroke-width="2.41"></path>
    <path d="M173.392 396.551h12.695c12.166 0 19.042-8.919 19.042-22.481 0-13.562-.793-285.044-.793-297.276 0-12.233 10.579-22.217 25.39-22.217h77.493"
          stroke="#DCE5F7" stroke-width="2.41"></path>
    <path d="M361.798 215.139c.296 2.627.503 5.28.618 7.957l-.499.022a117.074 117.074 0 0 1 0 9.94l.499.021a115.17 115.17 0 0 1-.618 7.957l-.497-.056a113.37 113.37 0 0 1-1.541 9.807l.49.099a113.67 113.67 0 0 1-1.858 7.765l-.482-.134a112.842 112.842 0 0 1-3.066 9.443l.468.175a113.47 113.47 0 0 1-3.057 7.373l-.455-.208a113.229 113.229 0 0 1-4.515 8.844l.435.247a114.021 114.021 0 0 1-4.176 6.799l-.416-.276a114.015 114.015 0 0 1-5.844 8.03l.391.311a114.818 114.818 0 0 1-5.185 6.066l-.369-.338a114.557 114.557 0 0 1-7.022 7.022l.338.369a114.886 114.886 0 0 1-6.066 5.185l-.311-.391a114.001 114.001 0 0 1-8.03 5.843l.277.417a114.894 114.894 0 0 1-6.8 4.176l-.247-.435a113.577 113.577 0 0 1-8.844 4.515l.208.455a113.238 113.238 0 0 1-7.373 3.057l-.175-.468a113.21 113.21 0 0 1-9.443 3.066l.134.482a113.078 113.078 0 0 1-7.765 1.857l-.099-.49a113.637 113.637 0 0 1-9.807 1.542l.056.497c-2.626.296-5.279.503-7.956.618l-.022-.5a115.465 115.465 0 0 1-9.94 0l-.022.5c-2.677-.115-5.33-.322-7.956-.618l.056-.497c-3.315-.374-6.586-.89-9.807-1.542l-.099.49c-2.622-.53-5.211-1.15-7.765-1.857l.134-.482a113.21 113.21 0 0 1-9.443-3.066l-.175.468a113.238 113.238 0 0 1-7.373-3.057l.208-.455a113.399 113.399 0 0 1-8.844-4.515l-.247.435a114.894 114.894 0 0 1-6.8-4.176l.277-.417a114.001 114.001 0 0 1-8.03-5.843l-.311.391a114.886 114.886 0 0 1-6.066-5.185l.338-.369a114.557 114.557 0 0 1-7.022-7.022l-.369.338a114.818 114.818 0 0 1-5.185-6.066l.391-.311a114.015 114.015 0 0 1-5.844-8.03l-.416.276a114.021 114.021 0 0 1-4.176-6.799l.435-.247a113.229 113.229 0 0 1-4.515-8.844l-.455.208a113.47 113.47 0 0 1-3.057-7.373l.468-.175a112.842 112.842 0 0 1-3.066-9.443l-.482.134a113.67 113.67 0 0 1-1.858-7.765l.49-.099a113.37 113.37 0 0 1-1.541-9.807l-.497.056a115.17 115.17 0 0 1-.618-7.957l.499-.021a117.11 117.11 0 0 1 0-9.94l-.499-.022c.115-2.677.322-5.33.618-7.957l.497.056c.373-3.314.889-6.585 1.541-9.806l-.49-.1a113.643 113.643 0 0 1 1.858-7.764l.482.133a112.94 112.94 0 0 1 3.066-9.442l-.468-.176c.935-2.5 1.955-4.959 3.057-7.372l.455.207a113.406 113.406 0 0 1 4.515-8.844l-.435-.246a114.367 114.367 0 0 1 4.176-6.8l.416.276a114.229 114.229 0 0 1 5.844-8.029l-.391-.312a114.796 114.796 0 0 1 5.185-6.065l.369.338a114.574 114.574 0 0 1 7.022-7.023l-.338-.368a114.416 114.416 0 0 1 6.066-5.185l.311.391a114.015 114.015 0 0 1 8.03-5.844l-.277-.417a114.353 114.353 0 0 1 6.8-4.175l.247.435a113.052 113.052 0 0 1 8.844-4.515l-.208-.455a113.808 113.808 0 0 1 7.373-3.058l.175.469a112.475 112.475 0 0 1 9.443-3.066l-.134-.482a113.67 113.67 0 0 1 7.765-1.858l.099.49a113.25 113.25 0 0 1 9.807-1.541l-.056-.497c2.626-.296 5.279-.503 7.956-.618l.022.499a115.469 115.469 0 0 1 9.94 0l.022-.499c2.677.115 5.33.322 7.956.618l-.056.497c3.315.373 6.586.889 9.807 1.541l.099-.49a113.67 113.67 0 0 1 7.765 1.858l-.134.482c3.207.887 6.357 1.911 9.443 3.066l.175-.469c2.501.936 4.959 1.956 7.373 3.058l-.208.455a113.229 113.229 0 0 1 8.844 4.515l.247-.435a114.353 114.353 0 0 1 6.8 4.175l-.277.417a114.015 114.015 0 0 1 8.03 5.844l.311-.391a114.416 114.416 0 0 1 6.066 5.185l-.338.368a114.574 114.574 0 0 1 7.022 7.023l.369-.338a114.796 114.796 0 0 1 5.185 6.065l-.391.312a114.229 114.229 0 0 1 5.844 8.029l.416-.276a114.367 114.367 0 0 1 4.176 6.8l-.435.246a113.406 113.406 0 0 1 4.515 8.844l.455-.207a113.211 113.211 0 0 1 3.057 7.372l-.468.176a112.94 112.94 0 0 1 3.066 9.442l.482-.133a113.643 113.643 0 0 1 1.858 7.764l-.49.1a113.287 113.287 0 0 1 1.541 9.806l.497-.056z"
          stroke="#000" stroke-opacity=".05" stroke-dasharray="10 8"></path>
    <ellipse opacity=".1" rx="3.76" ry="3.76" transform="matrix(.99622 -.08683 -.08683 -.99622 134.302 238.207)"
             fill="#8991DC"></ellipse>
    <path opacity=".2"
          d="M139.312 237.77a5.028 5.028 0 0 0-5.447-4.573 5.028 5.028 0 1 0 .874 10.019 5.029 5.029 0 0 0 4.573-5.446z"
          stroke="#8991DC" stroke-width=".805"></path>
    <ellipse rx="1.42" ry="1.42" transform="matrix(.99622 -.08684 -.08683 -.99622 134.303 238.207)"
             fill="#191847"></ellipse>
    <ellipse opacity=".1" rx="3.76" ry="3.76" transform="matrix(.99622 -.08683 -.08683 -.99622 221.765 116.804)"
             fill="#8991DC"></ellipse>
    <path opacity=".2" d="M226.774 116.367a5.029 5.029 0 1 0-10.02.872 5.029 5.029 0 0 0 10.02-.872z" stroke="#8991DC"
          stroke-width=".805"></path>
    <ellipse rx="1.42" ry="1.42" transform="matrix(.99622 -.08683 -.08683 -.99622 221.764 116.803)"
             fill="#191847"></ellipse>
    <ellipse opacity=".1" rx="3.76" ry="3.76" transform="matrix(.99622 -.08683 -.08683 -.99622 261.797 341.192)"
             fill="#8991DC"></ellipse>
    <path opacity=".2" d="M266.807 340.756a5.029 5.029 0 1 0-10.02.874 5.029 5.029 0 0 0 10.02-.874z" stroke="#8991DC"
          stroke-width=".805"></path>
    <ellipse rx="1.42" ry="1.421" transform="matrix(.99622 -.08684 -.08683 -.99622 261.797 341.193)"
             fill="#191847"></ellipse>
    <path d="M387.577 307.862a159.529 159.529 0 0 1-4.055 6.791l-.423-.267a157.33 157.33 0 0 1-2.7 4.137 156.94 156.94 0 0 1-2.826 4.052l.406.293a160.516 160.516 0 0 1-4.78 6.302l-.391-.312a157.962 157.962 0 0 1-6.382 7.505l.371.336a157.493 157.493 0 0 1-5.454 5.729l-.353-.353a157.061 157.061 0 0 1-7.185 6.742l.331.375a157.18 157.18 0 0 1-6.065 5.079l-.311-.391a156.823 156.823 0 0 1-7.905 5.892l.287.41a156.642 156.642 0 0 1-6.599 4.362l-.265-.424a157.48 157.48 0 0 1-8.515 4.963l.238.44a158.725 158.725 0 0 1-7.048 3.592l-.216-.451a157.917 157.917 0 0 1-9.017 3.975l.188.464a159.45 159.45 0 0 1-7.406 2.781l-.164-.472a158.734 158.734 0 0 1-9.407 2.944l.135.482a159.87 159.87 0 0 1-7.669 1.938l-.111-.487a159.082 159.082 0 0 1-9.675 1.878l.08.494c-2.603.422-5.216.78-7.838 1.073l-.055-.497c-3.264.364-6.541.628-9.825.789l.024.5c-2.632.129-5.269.194-7.908.192v-.5a158.053 158.053 0 0 1-9.849-.312l-.032.499a157.009 157.009 0 0 1-7.879-.694l.056-.496a157.218 157.218 0 0 1-9.754-1.416l-.087.493c-2.591-.46-5.176-.985-7.751-1.576l.111-.487a157.202 157.202 0 0 1-9.535-2.506l-.142.479a157.3 157.3 0 0 1-7.525-2.44l.166-.471a157.345 157.345 0 0 1-9.185-3.564l-.196.46a157.603 157.603 0 0 1-7.201-3.272l.218-.45a158.213 158.213 0 0 1-8.728-4.572l-.245.436a160.583 160.583 0 0 1-6.791-4.055l.267-.423a162.595 162.595 0 0 1-8.189-5.526l-.293.406a162.508 162.508 0 0 1-6.302-4.78l.312-.391a158.55 158.55 0 0 1-7.505-6.382l-.336.37a157.468 157.468 0 0 1-5.729-5.453l.353-.354a157.04 157.04 0 0 1-6.742-7.184l-.375.33a157.18 157.18 0 0 1-5.079-6.065l.391-.311a156.644 156.644 0 0 1-5.892-7.904l-.41.286a156.642 156.642 0 0 1-4.362-6.599l.424-.265a157.48 157.48 0 0 1-4.963-8.515l-.44.238a159.24 159.24 0 0 1-3.592-7.047l.451-.216a158.228 158.228 0 0 1-3.975-9.017l-.464.187a159.529 159.529 0 0 1-2.781-7.405l.472-.164a159.047 159.047 0 0 1-2.944-9.407l-.482.134a159.872 159.872 0 0 1-1.938-7.669l.487-.11a159.123 159.123 0 0 1-1.878-9.676l-.494.08a159.5 159.5 0 0 1-1.073-7.837l.497-.056c-.364-3.264-.628-6.54-.79-9.825l-.499.024c-.13-2.631-.194-5.268-.192-7.908l.5.001c.002-3.282.105-6.566.312-9.85l-.5-.031c.166-2.629.397-5.256.695-7.88l.496.056c.37-3.258.84-6.51 1.416-9.753l-.493-.087c.46-2.592.984-5.176 1.576-7.752l.487.112a156.67 156.67 0 0 1 2.506-9.535l-.48-.142a157.3 157.3 0 0 1 2.44-7.525l.472.166a157.374 157.374 0 0 1 3.564-9.186l-.46-.195a158.132 158.132 0 0 1 3.272-7.202l.45.218a158.186 158.186 0 0 1 4.572-8.727l-.436-.246a161.219 161.219 0 0 1 4.055-6.791l.423.267a162.595 162.595 0 0 1 5.526-8.189l-.406-.292a160.992 160.992 0 0 1 4.78-6.302l.391.312a158.076 158.076 0 0 1 6.382-7.506l-.371-.336a158.36 158.36 0 0 1 5.454-5.729l.354.354c2.334-2.333 4.73-4.58 7.184-6.743l-.33-.375a157.18 157.18 0 0 1 6.065-5.079l.311.391a157.253 157.253 0 0 1 7.904-5.892l-.286-.41a157.269 157.269 0 0 1 6.599-4.362l.265.424a157.407 157.407 0 0 1 8.515-4.963l-.238-.44a158.382 158.382 0 0 1 7.047-3.591l.216.45a158.378 158.378 0 0 1 9.017-3.975l-.187-.463c2.447-.99 4.916-1.917 7.405-2.782l.164.473a159.047 159.047 0 0 1 9.407-2.945l-.134-.482c2.54-.71 5.098-1.355 7.669-1.938l.11.488a159.123 159.123 0 0 1 9.676-1.879l-.08-.494a159.62 159.62 0 0 1 7.837-1.072l.056.497c3.264-.365 6.54-.629 9.825-.79l-.025-.5c2.632-.13 5.269-.193 7.909-.192l-.001.5c3.281.002 6.566.106 9.85.312l.031-.499c2.629.166 5.256.397 7.88.694l-.056.497c3.258.369 6.51.84 9.753 1.415l.087-.492c2.591.459 5.176.984 7.752 1.575l-.112.487a156.67 156.67 0 0 1 9.535 2.506l.142-.479a157.3 157.3 0 0 1 7.525 2.44l-.166.472a157.014 157.014 0 0 1 9.186 3.564l.195-.46a158.239 158.239 0 0 1 7.202 3.271l-.218.45a158.667 158.667 0 0 1 8.727 4.572l.246-.435a160.688 160.688 0 0 1 6.791 4.055l-.267.423a160.987 160.987 0 0 1 8.189 5.525l.292-.405a159.037 159.037 0 0 1 6.302 4.78l-.312.391a157.49 157.49 0 0 1 7.506 6.382l.336-.371a158.317 158.317 0 0 1 5.729 5.454l-.354.353a157.085 157.085 0 0 1 6.743 7.185l.375-.331a157.18 157.18 0 0 1 5.079 6.065l-.391.311a156.823 156.823 0 0 1 5.892 7.905l.41-.287a158.628 158.628 0 0 1 4.362 6.599l-.424.265a158.144 158.144 0 0 1 4.963 8.515l.439-.238a157.657 157.657 0 0 1 3.592 7.048l-.451.215a158.27 158.27 0 0 1 3.976 9.018l.463-.188c.99 2.447 1.917 4.916 2.782 7.406l-.473.164a157.775 157.775 0 0 1 2.945 9.407l.482-.135a161.066 161.066 0 0 1 1.938 7.669l-.488.111a159.088 159.088 0 0 1 1.879 9.675l.493-.08c.423 2.603.78 5.216 1.073 7.837l-.497.056c.365 3.264.628 6.541.79 9.825l.5-.024c.129 2.632.193 5.269.192 7.908h-.5a158.827 158.827 0 0 1-.312 9.849l.499.032a159.399 159.399 0 0 1-.694 7.879l-.497-.056c-.369 3.258-.84 6.511-1.415 9.754l.492.087a157.354 157.354 0 0 1-1.575 7.751l-.487-.111a156.478 156.478 0 0 1-2.507 9.535l.48.142c-.748 2.52-1.561 5.03-2.44 7.525l-.472-.166a156.91 156.91 0 0 1-3.564 9.185l.461.196a158.694 158.694 0 0 1-3.272 7.201l-.45-.218a158.513 158.513 0 0 1-4.572 8.727l.435.246z"
          stroke="#000" stroke-opacity=".05" stroke-dasharray="10 8"></path>
    <ellipse opacity=".1" rx="5.218" ry="5.218" transform="scale(1 -1) rotate(-29.03 -4.85 -630.367)"
             fill="#8991DC"></ellipse>
    <path opacity=".2" d="M311.522 85.01a7.134 7.134 0 1 0-12.476-6.924 7.134 7.134 0 0 0 12.476 6.924z"
          stroke="#8991DC" stroke-width=".805"></path>
    <ellipse rx="1.971" ry="1.971" transform="matrix(.87437 .48527 .48526 -.87437 305.284 81.547)"
             fill="#191847"></ellipse>
    <ellipse opacity=".1" rx="5.218" ry="5.218" transform="matrix(.87437 .48527 .48526 -.87437 177.168 370.719)"
             fill="#8991DC"></ellipse>
    <path opacity=".2" d="M183.405 374.181a7.134 7.134 0 1 0-12.475-6.925 7.134 7.134 0 0 0 12.475 6.925z"
          stroke="#8991DC" stroke-width=".805"></path>
    <ellipse rx="1.971" ry="1.971" transform="scale(1 -1) rotate(-29.03 -627.38 -527.522)" fill="#191847"></ellipse>
    <ellipse cx="250.013" cy="230.266" rx="187.147" ry="187.147" transform="rotate(34.011 250.013 230.266)"
             stroke="#000" stroke-opacity=".05" stroke-dasharray="10 8"></ellipse>
    <ellipse opacity=".1" rx="6.155" ry="6.155" transform="matrix(.87437 .48526 .48527 -.87437 316.038 55.041)"
             fill="#8991DC"></ellipse>
    <path opacity=".2" d="M323.46 59.16a8.49 8.49 0 1 0-14.846-8.238 8.49 8.49 0 0 0 14.846 8.239z" stroke="#8991DC"
          stroke-width=".805"></path>
    <ellipse rx="2.325" ry="2.325" transform="matrix(.87437 .48526 .48527 -.87437 316.038 55.041)"
             fill="#191847"></ellipse>
    <ellipse opacity=".1" rx="6.155" ry="6.155" transform="matrix(.87437 .48526 .48526 -.87437 164.89 396.196)"
             fill="#8991DC"></ellipse>
    <path opacity=".2" d="M172.312 400.315a8.489 8.489 0 1 0-14.845-8.238 8.489 8.489 0 0 0 14.845 8.238z"
          stroke="#8991DC" stroke-width=".805"></path>
    <ellipse rx="2.325" ry="2.325" transform="matrix(.87437 .48526 .48527 -.87437 164.89 396.196)"
             fill="#191847"></ellipse>
    <g opacity=".7">
        <g style="mix-blend-mode:lighten" filter="url(#filter0_f)">
            <path d="M147.958 240.347c0 20.61-25.565 67.091-42.977 67.091-17.412 0-37.679-26.088-37.679-46.699 0-20.61 12.663-25.286 30.075-25.286s50.581-15.716 50.581 4.894z"
                  fill="#505A90"></path>
        </g>
        <g style="mix-blend-mode:lighten" filter="url(#filter1_f)">
            <path d="M149.563 218.364c0 19.694-8.417 45.671-24.83 45.671-16.412 0-37.769 13.549-37.769-6.145s16.469-75.185 32.881-75.185c16.413 0 29.718 15.965 29.718 35.659z"
                  fill="#30F"></path>
        </g>
        <g style="mix-blend-mode:lighten" filter="url(#filter2_f)">
            <path d="M116.258 247.868c0 18.663-5.848-8.104-35.012 9.137-16.852 13.276-30.395-15.129-30.395-33.792 0-18.663 13.608-33.792 30.395-33.792 16.786 0 35.012 39.784 35.012 58.447z"
                  fill="#0085FF"></path>
        </g>
    </g>
    <g style="mix-blend-mode:lighten" filter="url(#filter3_f)">
        <path d="M369.897 274.354c4.677 10.307-.759 40.805-11.646 45.745-10.886 4.939-29.478-2.358-34.155-12.665-4.677-10.307 2.179-16.238 13.066-21.178 10.886-4.94 28.058-22.21 32.735-11.902z"
              fill="#505A90"></path>
    </g>
    <g style="mix-blend-mode:lighten" filter="url(#filter4_f)">
        <path d="M365.912 262.905c4.469 9.849 5.101 25.228-5.161 29.884-10.261 4.657-20.539 17.491-25.008 7.642-4.469-9.849-6.765-42.272 3.497-46.928 10.261-4.656 22.203-.447 26.672 9.402z"
              fill="#30F"></path>
    </g>
    <g style="mix-blend-mode:lighten" filter="url(#filter5_f)">
        <path d="M351.784 287.108c4.235 9.333-5.495-2.393-19.817 14.503-7.524 11.42-22.437 1.057-26.672-8.277-4.235-9.333.84-20.76 11.335-25.522 10.496-4.763 30.919 9.963 35.154 19.296z"
              fill="#0085FF"></path>
    </g>
    <path d="M223.462 228.05c6.667 3.85 6.667 13.472 0 17.321L61.45 338.908c-6.666 3.849-15-.962-15-8.66V143.173c0-7.698 8.334-12.509 15-8.66l162.012 93.537z"
          fill="#fff"></path>
    <path opacity=".9"
          d="M175.78 241.56l-.648.378c-1.818-3.106-1.818-7.039 0-10.146l.648.379a9.162 9.162 0 0 1 3.484-3.385l4.21-2.347-.365-.655 8.42-4.696.366.656 8.42-4.696-.365-.655 8.42-4.695.365.655 8.421-4.695-.366-.655 8.421-4.695.365.655 8.42-4.696-.365-.655 8.421-4.695.365.655 8.42-4.695-.365-.655 8.42-4.695.366.655 8.42-4.696-.365-.655 8.42-4.695.365.655 8.421-4.695-.366-.655 8.421-4.695.365.655 8.42-4.696-.365-.655 8.421-4.695.365.655 8.42-4.695-.365-.655 8.42-4.695.366.655 8.42-4.696-.365-.655 8.42-4.695.365.655 8.421-4.695-.366-.655 8.421-4.695.365.655 8.42-4.696-.365-.655 8.421-4.695.365.655 8.42-4.695-.365-.655 8.42-4.695.366.655 4.21-2.348a9.177 9.177 0 0 1 4.607-1.185l.01-.75a10.11 10.11 0 0 1 8.579 5.04l-.65.373a9.18 9.18 0 0 1 1.209 4.601v5.087h.75v10.173h-.75v10.173h.75v10.173h-.75v10.173h.75v10.173h-.75v10.173h.75v10.173h-.75v10.173h.75v10.173h-.75v10.173h.75v10.173h-.75v10.173h.75v10.173h-.75v10.173h.75v10.173h-.75v10.173h.75v10.173h-.75v10.173h.75v10.173h-.75v10.173h.75v10.173h-.75v10.173h.75v10.173h-.75v5.087a9.182 9.182 0 0 1-1.209 4.601l.65.373a10.108 10.108 0 0 1-8.579 5.039l-.01-.75a9.157 9.157 0 0 1-4.607-1.185l-4.21-2.347-.366.655-8.42-4.695.365-.655-8.42-4.696-.365.655-8.421-4.695.365-.655-8.42-4.695-.365.655-8.421-4.695.366-.655-8.421-4.696-.365.655-8.42-4.695.365-.655-8.42-4.695-.366.655-8.42-4.695.365-.655-8.42-4.696-.365.656-8.421-4.696.365-.655-8.42-4.695-.365.655-8.421-4.695.366-.655-8.421-4.695-.365.655-8.42-4.696.365-.655-8.42-4.695-.366.655-8.42-4.695.365-.655-8.42-4.695-.365.655-8.421-4.696.365-.655-8.42-4.695-.365.655-8.421-4.695.366-.655-8.421-4.695-.365.655-8.42-4.696.365-.655-8.42-4.695-.366.655-8.42-4.695.365-.655-4.21-2.348a9.16 9.16 0 0 1-3.484-3.384z"
          fill="#fff" stroke="#DCE5F7" stroke-width="1.5" stroke-dasharray="10 10"></path>
    <g filter="url(#filter6_d)">
        <rect x="385.776" y="200.041" width="34.706" height="25.522" rx="7.544" fill="#0057FF"></rect>
    </g>
    <path fill-rule="evenodd" clip-rule="evenodd"
          d="M163.987 227.259c-6.667 3.849-6.667 13.471 0 17.32l221.295 127.765c6.666 3.849 15-.962 15-8.66V108.155c0-7.698-8.334-12.51-15-8.66l-120.966 69.839 2.386 3.767-15.544 20.294 7.34 21.589-12.09 12.089v6.045l7.772 3.454-3.022 21.158-4.75 12.953v-28.066h-10.362l-4.318-15.544 7.772-12.089-11.658-21.589-.839-2.518-63.016 36.382z"
          fill="url(#paint0_linear)"></path>
    <path d="M252.885 142.659h-4.75v7.34l4.75-3.454v-3.886zM243.931 156.375l-3.626-3.068-4.742 5.602 5.857.432 2.511-2.966zM240.318 146.76l-3.886-4.317v-2.483l-2.591-1.403-2.159 3.886v4.317h8.636z"
          fill="#0057FF"></path>
    <path opacity=".9"
          d="M69.638 97.464c0-1.57.2-3.067.571-4.476l-.725-.191c.83-3.155 2.483-5.9 4.667-8.067l.528.532a17.576 17.576 0 0 1 7.747-4.473l-.197-.723a17.685 17.685 0 0 1 9.32-.008l-.198.723c1.406.384 2.803.959 4.162 1.744l4.453 2.57.375-.649 8.907 5.143-.375.65 8.907 5.141.375-.65 8.907 5.143-.375.65 8.906 5.142.375-.649 8.907 5.142-.375.649 8.907 5.143.375-.65 8.907 5.143-.375.649 8.907 5.142.375-.649 8.906 5.142-.375.65 8.907 5.142.375-.649 8.907 5.142-.375.649 8.907 5.143.375-.65 8.906 5.143-.375.649 8.907 5.142.375-.649 8.907 5.142-.375.65 8.907 5.142.375-.65 8.906 5.143-.375.649 8.907 5.143.375-.65 8.907 5.142-.375.65 8.907 5.142.375-.649 8.907 5.142-.375.65 8.906 5.142.375-.65 8.907 5.143-.375.649 4.453 2.571a17.562 17.562 0 0 1 3.591 2.733l.528-.533a17.688 17.688 0 0 1 4.653 8.075l-.725.192a17.585 17.585 0 0 1 0 8.945l.725.191a17.683 17.683 0 0 1-4.653 8.075l-.528-.532a17.523 17.523 0 0 1-3.591 2.732l-4.453 2.571.375.65-8.907 5.142-.375-.649-8.907 5.142.375.65-8.906 5.142-.375-.65-8.907 5.143.375.649-8.907 5.143-.375-.65-8.907 5.142.375.65-8.906 5.142-.375-.649-8.907 5.142.375.65-8.907 5.142-.375-.65-8.907 5.143.375.649-8.906 5.143-.375-.65-8.907 5.142.375.65-8.907 5.142-.375-.649-8.907 5.142.375.65-8.907 5.142-.375-.65-8.906 5.143.375.649-8.907 5.143-.375-.65-8.907 5.142.375.65-8.907 5.142-.375-.649-8.906 5.142.375.649-8.907 5.143-.375-.65-8.907 5.143.375.649-8.907 5.142-.375-.649-4.453 2.571a17.513 17.513 0 0 1-4.162 1.743l.197.724c-3.147.858-6.35.8-9.32-.008l.198-.724a17.568 17.568 0 0 1-7.747-4.472l-.528.532a17.682 17.682 0 0 1-4.667-8.067l.725-.191a17.547 17.547 0 0 1-.571-4.476v-5.142h-.75v-10.285h.75v-10.284h-.75v-10.285h.75v-10.285h-.75V287.73h.75v-10.285h-.75V267.16h.75v-10.284h-.75v-10.285h.75v-10.285h-.75v-10.284h.75v-10.285h-.75v-10.285h.75v-10.284h-.75v-10.285h.75v-10.285h-.75v-10.284h.75v-10.285h-.75v-10.285h.75V133.46h-.75v-10.285h.75V112.89h-.75v-10.284h.75v-5.142z"
          stroke="#CBD6FB" stroke-width="1.5" stroke-dasharray="10 10"></path>
    <path fill-rule="evenodd" clip-rule="evenodd"
          d="M318.588 244.579c6.667-3.849 6.667-13.471 0-17.32l-64.739-37.377-2.691 3.513 7.34 21.588-12.09 12.09v6.045l7.772 3.454-3.022 21.157-4.75 12.954V242.617h-10.362l-4.318-15.544 7.772-12.09-11.658-21.588-3.454-10.363 5.531-6.966L97.293 99.494c-6.666-3.849-15 .963-15 8.661v255.529c0 7.698 8.334 12.509 15 8.66l221.295-127.765z"
          fill="url(#paint1_linear)"></path>
    <g filter="url(#filter7_d)">
        <rect x="136.756" y="107.182" width="31.694" height="49.558" rx="7.544" fill="#0057FF"></rect>
    </g>
    <g filter="url(#filter8_d)">
        <rect x="298.882" y="299.521" width="26.79" height="43.209" rx="7.544" fill="#fff"></rect>
    </g>
    <path d="M177.358 363.49V137.249c0-18.415 1.587-20.52 19.572-20.52h19.439" stroke="#DCE5F7"
          stroke-width="2.41"></path>
    <path d="M177.257 79.513c.372-.373 1.011-.373 1.437 0l8.035 8.035c.373.373.373 1.011 0 1.437-.372.373-1.011.373-1.437 0l-8.035-8.089a.995.995 0 0 1 0-1.383z"
          fill="#CC2E2E"></path>
    <path d="M186.729 79.513c.373.372.373 1.01 0 1.436l-8.035 8.036c-.373.373-1.011.373-1.437 0-.373-.373-.373-1.011 0-1.437l8.035-8.035c.426-.426 1.065-.426 1.437 0zM282.295 378.524c.373-.373 1.012-.373 1.437 0l8.036 8.035c.372.373.372 1.011 0 1.437-.373.372-1.011.372-1.437 0l-8.036-8.089a.996.996 0 0 1 0-1.383z"
          fill="#CC2E2E"></path>
    <path d="M291.768 378.523c.372.373.372 1.011 0 1.437l-8.036 8.036c-.372.372-1.011.372-1.437 0-.372-.373-.372-1.011 0-1.437l8.036-8.036c.426-.425 1.064-.425 1.437 0z"
          fill="#CC2E2E"></path>
    <path d="M172.222 223.371c.373-.372 1.011-.372 1.437 0l8.036 8.036c.372.372.372 1.011 0 1.436-.373.373-1.012.373-1.437 0l-8.036-8.088a.998.998 0 0 1 0-1.384z"
          fill="#1F2025"></path>
    <path d="M181.695 223.371c.372.373.372 1.011 0 1.437l-8.036 8.035c-.372.373-1.011.373-1.437 0-.372-.372-.372-1.011 0-1.436l8.036-8.036c.425-.426 1.064-.426 1.437 0z"
          fill="#1F2025"></path>
    <path d="M339.498 152.226c.372-.373 1.011-.373 1.436 0l8.036 8.035c.372.373.372 1.011 0 1.437-.373.372-1.011.372-1.437 0l-8.035-8.089a.995.995 0 0 1 0-1.383z"
          fill="#0057FF"></path>
    <path d="M348.97 152.226c.372.372.372 1.011 0 1.436l-8.036 8.036c-.372.372-1.011.372-1.436 0-.373-.373-.373-1.011 0-1.437l8.035-8.035c.426-.426 1.064-.426 1.437 0z"
          fill="#0057FF"></path>
    <path d="M64.34 273.195c.373-.372 1.012-.372 1.438 0l8.035 8.036c.373.372.373 1.011 0 1.437-.372.372-1.01.372-1.437 0l-8.035-8.089a.997.997 0 0 1 0-1.384z"
          fill="#1F2025"></path>
    <path d="M73.813 273.195c.373.373.373 1.011 0 1.437l-8.035 8.036c-.373.372-1.011.372-1.437 0-.373-.373-.373-1.011 0-1.437l8.035-8.036c.426-.425 1.065-.425 1.437 0zM423.927 283.827c.373-.372 1.011-.372 1.437 0l8.036 8.036c.372.372.372 1.011 0 1.437-.373.372-1.011.372-1.437 0l-8.036-8.089a.998.998 0 0 1 0-1.384z"
          fill="#1F2025"></path>
    <path d="M433.4 283.827c.372.373.372 1.011 0 1.437l-8.036 8.035c-.372.373-1.011.373-1.437 0-.372-.372-.372-1.011 0-1.436l8.036-8.036c.426-.426 1.064-.426 1.437 0z"
          fill="#1F2025"></path>
    <defs>
        <filter id="filter0_f" x="-40.296" y="122.121" width="295.852" height="292.915"
                color-interpolation-filters="sRGB">
            <feFlood flood-opacity="0" result="BackgroundImageFix"></feFlood>
            <feBlend in="SourceGraphic" in2="BackgroundImageFix" result="shape"></feBlend>
            <feGaussianBlur stdDeviation="53.799" result="effect1_foregroundBlur"></feGaussianBlur>
        </filter>
        <filter id="filter1_f" x="-20.634" y="75.107" width="277.795" height="301.071"
                color-interpolation-filters="sRGB">
            <feFlood flood-opacity="0" result="BackgroundImageFix"></feFlood>
            <feBlend in="SourceGraphic" in2="BackgroundImageFix" result="shape"></feBlend>
            <feGaussianBlur stdDeviation="53.799" result="effect1_foregroundBlur"></feGaussianBlur>
        </filter>
        <filter id="filter2_f" x="-56.748" y="81.822" width="280.604" height="286.199"
                color-interpolation-filters="sRGB">
            <feFlood flood-opacity="0" result="BackgroundImageFix"></feFlood>
            <feBlend in="SourceGraphic" in2="BackgroundImageFix" result="shape"></feBlend>
            <feGaussianBlur stdDeviation="53.799" result="effect1_foregroundBlur"></feGaussianBlur>
        </filter>
        <filter id="filter3_f" x="215.005" y="163.531" width="264.175" height="265.748"
                color-interpolation-filters="sRGB">
            <feFlood flood-opacity="0" result="BackgroundImageFix"></feFlood>
            <feBlend in="SourceGraphic" in2="BackgroundImageFix" result="shape"></feBlend>
            <feGaussianBlur stdDeviation="53.799" result="effect1_foregroundBlur"></feGaussianBlur>
        </filter>
        <filter id="filter4_f" x="224.359" y="144.007" width="252.229" height="267.648"
                color-interpolation-filters="sRGB">
            <feFlood flood-opacity="0" result="BackgroundImageFix"></feFlood>
            <feBlend in="SourceGraphic" in2="BackgroundImageFix" result="shape"></feBlend>
            <feGaussianBlur stdDeviation="53.799" result="effect1_foregroundBlur"></feGaussianBlur>
        </filter>
        <filter id="filter5_f" x="196.202" y="159.288" width="264.179" height="254.942"
                color-interpolation-filters="sRGB">
            <feFlood flood-opacity="0" result="BackgroundImageFix"></feFlood>
            <feBlend in="SourceGraphic" in2="BackgroundImageFix" result="shape"></feBlend>
            <feGaussianBlur stdDeviation="53.799" result="effect1_foregroundBlur"></feGaussianBlur>
        </filter>
        <filter id="filter6_d" x="367.729" y="192.822" width="70.8" height="61.617" color-interpolation-filters="sRGB">
            <feFlood flood-opacity="0" result="BackgroundImageFix"></feFlood>
            <feColorMatrix in="SourceAlpha" values="0 0 0 0 0 0 0 0 0 0 0 0 0 0 0 0 0 0 127 0"></feColorMatrix>
            <feOffset dy="10.828"></feOffset>
            <feGaussianBlur stdDeviation="9.024"></feGaussianBlur>
            <feColorMatrix values="0 0 0 0 0.0327988 0 0 0 0 0.0800925 0 0 0 0 0.174672 0 0 0 0.12 0"></feColorMatrix>
            <feBlend in2="BackgroundImageFix" result="effect1_dropShadow"></feBlend>
            <feBlend in="SourceGraphic" in2="effect1_dropShadow" result="shape"></feBlend>
        </filter>
        <filter id="filter7_d" x="118.709" y="99.963" width="67.788" height="85.652" color-interpolation-filters="sRGB">
            <feFlood flood-opacity="0" result="BackgroundImageFix"></feFlood>
            <feColorMatrix in="SourceAlpha" values="0 0 0 0 0 0 0 0 0 0 0 0 0 0 0 0 0 0 127 0"></feColorMatrix>
            <feOffset dy="10.828"></feOffset>
            <feGaussianBlur stdDeviation="9.024"></feGaussianBlur>
            <feColorMatrix values="0 0 0 0 0.200301 0 0 0 0 0.427578 0 0 0 0 0.882096 0 0 0 0.1 0"></feColorMatrix>
            <feBlend in2="BackgroundImageFix" result="effect1_dropShadow"></feBlend>
            <feBlend in="SourceGraphic" in2="effect1_dropShadow" result="shape"></feBlend>
        </filter>
        <filter id="filter8_d" x="280.835" y="292.303" width="62.884" height="79.304"
                color-interpolation-filters="sRGB">
            <feFlood flood-opacity="0" result="BackgroundImageFix"></feFlood>
            <feColorMatrix in="SourceAlpha" values="0 0 0 0 0 0 0 0 0 0 0 0 0 0 0 0 0 0 127 0"></feColorMatrix>
            <feOffset dy="10.828"></feOffset>
            <feGaussianBlur stdDeviation="9.024"></feGaussianBlur>
            <feColorMatrix values="0 0 0 0 0.0327988 0 0 0 0 0.0800925 0 0 0 0 0.174672 0 0 0 0.06 0"></feColorMatrix>
            <feBlend in2="BackgroundImageFix" result="effect1_dropShadow"></feBlend>
            <feBlend in="SourceGraphic" in2="effect1_dropShadow" result="shape"></feBlend>
        </filter>
        <linearGradient id="paint0_linear" x1="279.634" y1="98.14" x2="279.634" y2="373.699"
                        gradientUnits="userSpaceOnUse">
            <stop stop-color="#0057FF" stop-opacity=".17"></stop>
            <stop offset="1" stop-color="#0057FF" stop-opacity="0"></stop>
        </linearGradient>
        <linearGradient id="paint1_linear" x1="202.941" y1="98.14" x2="202.941" y2="373.699"
                        gradientUnits="userSpaceOnUse">
            <stop stop-color="#0057FF" stop-opacity=".44"></stop>
            <stop offset="1" stop-color="#0057FF" stop-opacity="0"></stop>
        </linearGradient>
    </defs>
</svg>
