<?xml version="1.0" encoding="UTF-8"?>
<svg xmlns="http://www.w3.org/2000/svg" width="48" height="47" viewBox="0 0 48 47" fill="none">
    <g clip-path="url(#clip0)">
        <path d="M7.474 21.4a.712.712 0 0 0 .677-.936 14.448 14.448 0 0 1-.725-4.54c0-7.994 6.506-14.5 14.502-14.5 7.995 0 14.501 6.506 14.501 14.502a.712.712 0 0 0 1.424 0C37.853 7.144 30.71 0 21.928 0 13.146 0 6.002 7.144 6.002 15.926c0 1.706.268 3.384.796 4.986.098.3.377.489.676.489z"
              fill="#0057FF" stroke="#0057FF" stroke-width=".5"></path>
        <path d="M25.453 47a.714.714 0 0 0 .709-.78c-.17-1.797 1.387-6.234 2.192-8.288h7.022a2.518 2.518 0 0 0 2.515-2.515V28.02h3.398a.713.713 0 0 0 .557-1.157c-.81-1.011-3.99-8.864-3.99-10.938a.712.712 0 0 0-1.425 0c0 1.927 2.244 7.952 3.62 10.67H37.18a.713.713 0 0 0-.713.713v8.11c0 .6-.488 1.09-1.09 1.09H27.87c-.29 0-.55.175-.66.444-.252.62-2.274 5.656-2.47 8.563-6.844-.67-15.224-4.418-17.201-6.067 2.102-6.015 2.307-12.213.626-18.931a.706.706 0 0 0-.863-.519.712.712 0 0 0-.518.863c1.648 6.596 1.406 12.66-.74 18.534a.715.715 0 0 0 .127.708c1.69 1.971 11.66 6.408 19.233 6.896a.539.539 0 0 0 .049.002z"
              fill="#0057FF" stroke="#0057FF" stroke-width=".5"></path>
        <path opacity=".3"
              d="M25.7 47.893c-4.243-1.684-9.707-3.88-12.46-5.069-1.08-.466-1.467-1.528-1.119-2.652.92-2.967 1.85-7.228.879-9.172-1.151-2.302-2.088-9.39-2.456-13.052a2.665 2.665 0 0 1 .054-.888C11.777 12.11 16.408 3.112 26.5 3.5c13 .5 14.5 13.5 15 16 .305 1.527 1.407 5.483 2.282 8.53a1.935 1.935 0 0 1-1.856 2.47A1.926 1.926 0 0 0 40 32.426V37a3 3 0 0 1-3 3h-2.948a3 3 0 0 0-2.796 1.913l-1.664 4.28a2.992 2.992 0 0 1-3.892 1.7z"
              fill="url(#paint0_linear)"></path>
    </g>
    <defs>
        <linearGradient id="paint0_linear" x1="40.376" y1="-10.179" x2="4.879" y2="27.93"
                        gradientUnits="userSpaceOnUse">
            <stop stop-color="#0057FF"></stop>
            <stop offset="1" stop-color="#0057FF" stop-opacity="0"></stop>
        </linearGradient>
        <clipPath id="clip0">
            <path fill="#fff" transform="translate(.5)" d="M0 0h47v47H0z"></path>
        </clipPath>
    </defs>
</svg>
