<?xml version="1.0" encoding="UTF-8"?>
<svg xmlns="http://www.w3.org/2000/svg" width="53" height="52" viewBox="0 0 53 52" fill="none">
    <g clip-path="url(#clip0)">
        <path d="M19.265 31.207l-.035-.036-4.754-4.753a.603.603 0 0 1-.005-.854h0a.6.6 0 0 1 .852.002l3.55 3.55h.001l.043.043.348 2.048zm0 0l.05.007m-.05-.007l.05.007m3.302-2.055s0 0 0 0a2.613 2.613 0 0 1-3.624.069h0l-.007-.006a.49.49 0 0 1-.027-.025l-.012-.01a.417.417 0 0 0-.021-.02l-.008-.007s0 0 0 0 0 0 0 0 0 0 0 0l3.805.105-.106-.106zm0 0a2.62 2.62 0 0 0-.001-3.7l-9.873-9.872a.897.897 0 0 0-.635-.263H1.548a.897.897 0 1 0 0 1.795h10.189l.044.044 9.565 9.566h0c.32.32.32.84.002 1.16h0a.824.824 0 0 1-1.164 0l-3.59-3.59a.068.068 0 0 1-.004-.004c0-.001 0-.002-.002-.002h0a2.376 2.376 0 0 0-1.692-.7c-.64 0-1.24.248-1.695.701a2.4 2.4 0 0 0-.067 3.313l.007.008h0l.002.002.005.006.005.005.029.033.014.016 9.42 1.482zm-3.806.107v-.001h0zm0 0h0l-3.596-3.597h0m3.596 3.597l-3.596-3.596h0m0 0l.041-.042-.36-.09c.07 0 .204.017.318.13v.001zm4.1 5.544l12.137 1.68h.001c1.401.208 2.35 1.228 2.349 2.464v0c0 .659-.256 1.28-.722 1.747a2.455 2.455 0 0 1-1.75.725H16.943a.898.898 0 0 1-.635-.263L5.2 26.458l-.044-.044m14.159 4.8l-14.159-4.8m0 0h-.062m.062 0h-.062m0 0H1.548a.897.897 0 1 1 0-1.795h3.98c.238 0 .466.095.634.263l-1.068 1.532zm13.115 6.275l-.106.106 13.904 2.564s0 0 0 0c0-.248-.161-.414-.323-.514a1.341 1.341 0 0 0-.485-.173h0L18.72 32.943a.897.897 0 0 1-.511-.255z"
              fill="#0057FF" stroke="#fff" stroke-width=".3"></path>
        <mask id="a" fill="#fff">
            <path d="M51.452 34.73H41.325l-9.566-9.566a.673.673 0 0 1 0-.948.674.674 0 0 1 .95 0l3.593 3.594h.001v.001h.001l.002.001c.48.48 1.118.745 1.797.745.68 0 1.32-.265 1.802-.746a2.55 2.55 0 0 0 .071-3.52l-.02-.022c-.017-.02-.032-.04-.05-.058h-.002l-5.007-5.007a1.047 1.047 0 0 0-.597-.297l-12.478-1.728c-.235-.035-.679-.192-.679-.539a.522.522 0 0 1 .526-.525h13.956l11.107 11.108c.196.196.462.307.74.307h3.98a1.047 1.047 0 1 0 0-2.095h-3.546L36.8 14.326a1.047 1.047 0 0 0-.74-.306h-14.39c-.7 0-1.36.273-1.855.768a2.601 2.601 0 0 0-.766 1.854c0 1.322 1.015 2.395 2.478 2.611l12.138 1.681 4.757 4.756v.001a.45.45 0 1 1-.636.64v-.001l-3.596-3.596-.032-.029c-.015-.014-.031-.03-.048-.044a2.77 2.77 0 0 0-3.832.074 2.771 2.771 0 0 0 0 3.911l9.874 9.873c.196.197.463.307.74.307h10.561a1.047 1.047 0 0 0 0-2.096z"></path>
        </mask>
        <path d="M51.452 34.73H41.325l-9.566-9.566a.673.673 0 0 1 0-.948.674.674 0 0 1 .95 0l3.593 3.594h.001v.001h.001l.002.001c.48.48 1.118.745 1.797.745.68 0 1.32-.265 1.802-.746a2.55 2.55 0 0 0 .071-3.52l-.02-.022c-.017-.02-.032-.04-.05-.058h-.002l-5.007-5.007a1.047 1.047 0 0 0-.597-.297l-12.478-1.728c-.235-.035-.679-.192-.679-.539a.522.522 0 0 1 .526-.525h13.956l11.107 11.108c.196.196.462.307.74.307h3.98a1.047 1.047 0 1 0 0-2.095h-3.546L36.8 14.326a1.047 1.047 0 0 0-.74-.306h-14.39c-.7 0-1.36.273-1.855.768a2.601 2.601 0 0 0-.766 1.854c0 1.322 1.015 2.395 2.478 2.611l12.138 1.681 4.757 4.756v.001a.45.45 0 1 1-.636.64v-.001l-3.596-3.596-.032-.029c-.015-.014-.031-.03-.048-.044a2.77 2.77 0 0 0-3.832.074 2.771 2.771 0 0 0 0 3.911l9.874 9.873c.196.197.463.307.74.307h10.561a1.047 1.047 0 0 0 0-2.096z"
              fill="#0057FF"></path>
        <path d="M41.325 34.73l-.212.212.088.088h.124v-.3zm-9.566-9.566l-.212.212.212-.212zm0-.948l-.212-.213.212.213zm.95 0l.211-.213-.212.213zm0 0l-.211.213.212-.212zm3.593 3.594l-.212.212.035.034.043.022.135-.268zm.001 0l-.268.135.022.043.034.034.212-.212zm0 .001l-.267.134.022.045.035.035.21-.214zm.001 0l.212-.212-.001-.002-.21.214zm.002.001l-.24.18.012.017.015.015.212-.212zm3.599-.001l.212.212-.212-.212zm.071-3.52l-.234.186.006.008.007.008.221-.203zm-.02-.022l.227-.197-.007-.008-.22.205zm-.05-.058l-.25.167.016.024.021.021.212-.212zm-.002 0l.212-.213-.001-.001-.21.213zm0 0l-.212.212.002.001.21-.214zm-5.007-5.007l-.212.212.212-.212zm-.597-.297l-.041.297.041-.297zm-12.478-1.728l-.043.297h.002l.041-.297zm-.679-.539h.3-.3zm.154-.371l-.213-.212.213.212zm14.328-.154l.212-.213-.088-.087h-.124v.3zm11.107 11.108l-.212.212.212-.212zm1.174-1.788l-.212.212.088.088h.124v-.3zM36.8 14.326l.212-.212-.212.212zm-16.985.462l-.212-.212.212.212zm-.766 1.854h.3-.3zm2.478 2.611l-.044.297h.002l.042-.297zm12.138 1.681l.212-.212-.07-.071-.1-.014-.042.297zm4.757 4.756l-.212.212.034.035.044.022.134-.269zm0 .001l-.268.134.022.044.034.034.213-.212zm.002.639l.212.212-.212-.212zm-.637 0l.212-.211-.212.212zm0 0l.268-.134-.083-.166h-.186v.3zm0 0l-.213.212.088.088h.124v-.3zm-3.597-3.596l-.212.212.212-.212zm0 0l-.213.212.088.087h.124v-.3zm0 0l-.213.211.212-.212zm-.032-.029l.208-.216-.003-.003-.205.22zm-.048-.044l-.204.22.007.007.007.006.19-.233zm-3.832.074l-.212-.213.212.213zm0 3.911l-.211.212.212-.212zm9.874 9.873l-.213.212.213-.212zm12.349-.74h-.3.3zm-1.048-1.349H41.325v.6h10.127v-.6zm-9.914.088l-9.566-9.566-.425.424 9.566 9.566.425-.424zm-9.566-9.566a.373.373 0 0 1-.001-.525l-.425-.423a.973.973 0 0 0 .001 1.372l.425-.424zm-.002-.524a.374.374 0 0 1 .526 0l.424-.425a.974.974 0 0 0-1.373 0l.423.425zm.526 0l.013.012.004.003v.001l-.003-.003-.012-.012.424-.424a.259.259 0 0 0-.013-.013l-.004-.003.003.003a.226.226 0 0 1 .012.011l-.424.425zm.002.001l3.592 3.593.425-.424-3.593-3.593-.424.424zm3.67 3.649a.296.296 0 0 1-.133-.133l.537-.269a.302.302 0 0 0-.135-.135l-.269.537zm-.077-.056a.313.313 0 0 0 .017.016c-.008-.007-.045-.038-.072-.093l.536-.268a.3.3 0 0 0-.073-.094l-.005-.004.002.002.02.017-.425.424zm.002.003l.422-.428-.422.428zm-.001-.002c.011.012.021.02.025.023l.004.003-.002-.002c-.006-.004-.03-.023-.053-.055l.48-.36a.3.3 0 0 0-.056-.056l-.002-.002.001.001.003.002c.004.003.013.01.024.022l-.424.424zm.001.002a2.826 2.826 0 0 0 2.01.832v-.6c-.6 0-1.162-.233-1.585-.657l-.425.424zm2.01.832c.76 0 1.476-.297 2.014-.834l-.424-.425a2.232 2.232 0 0 1-1.59.659v.6zm2.014-.834a2.85 2.85 0 0 0 .08-3.936l-.442.406a2.25 2.25 0 0 1-.063 3.106l.425.424zm.094-3.92a.441.441 0 0 0-.026-.03l-.004-.003.002.002-.453.393c.005.006.01.01.012.014l.004.004.002.002c.001.001 0 0 0 0a.132.132 0 0 1-.006-.008l.469-.374zm-.035-.04a1.08 1.08 0 0 1-.018-.02c-.01-.01-.023-.027-.04-.044l-.425.424a.298.298 0 0 1 .012.014l.032.036.439-.41zm-.021-.018a.305.305 0 0 0-.08-.081l.004.003c.005.004.02.015.037.031l-.424.425a.315.315 0 0 0 .038.032l.004.003h.002l-.004-.002a.296.296 0 0 1-.076-.078l.499-.333zm-.04-.048l-.422.427.422-.427zm.001.001l-5.007-5.006-.424.424 5.007 5.006.424-.424zm-5.007-5.006a1.347 1.347 0 0 0-.768-.382l-.082.594c.161.023.31.097.426.212l.424-.424zm-.768-.382l-12.478-1.728-.082.594 12.478 1.728.082-.594zm-12.475-1.728a.896.896 0 0 1-.314-.11c-.098-.06-.109-.106-.109-.132h-.6c0 .322.21.529.394.642.184.114.395.172.542.194l.087-.594zm-.423-.242c0-.08.04-.133.066-.16l-.425-.423a.822.822 0 0 0-.241.584l.6-.001zm.066-.159a.225.225 0 0 1 .16-.066v-.6a.825.825 0 0 0-.585.242l.425.424zm.16-.066h13.956v-.6H21.669v.6zm13.744-.088L46.52 27.435l.424-.424-11.107-11.109-.424.425zM46.52 27.435c.252.253.595.395.952.395v-.6a.747.747 0 0 1-.528-.22l-.425.425zm.952.395h3.98v-.6h-3.98v.6zm3.98 0c.745 0 1.348-.604 1.348-1.348h-.6a.747.747 0 0 1-.747.748v.6zm1.348-1.348c0-.744-.603-1.347-1.347-1.347v.6c.412 0 .747.334.747.747h.6zm-1.347-1.347h-3.547v.6h3.547v-.6zm-3.335.088L37.011 14.114l-.424.425 11.107 11.108.424-.424zM37.011 14.114a1.347 1.347 0 0 0-.953-.395v.6c.199 0 .39.08.53.22l.423-.425zm-.953-.395H21.67v.6h14.39v-.6zm-14.389 0c-.78 0-1.515.305-2.067.857l.424.425a2.305 2.305 0 0 1 1.643-.681v-.6zm-2.067.857a2.901 2.901 0 0 0-.854 2.066h.6c0-.62.24-1.202.678-1.642l-.424-.424zm-.854 2.066c0 1.494 1.149 2.674 2.734 2.908l.087-.594c-1.34-.198-2.221-1.165-2.221-2.314h-.6zm2.736 2.908l12.14 1.681.081-.594-12.138-1.681-.083.594zm11.968 1.596l4.757 4.756.424-.424-4.757-4.756-.424.424zm4.835 4.813a.299.299 0 0 1-.134-.134l.537-.268a.302.302 0 0 0-.135-.135l-.268.537zm-.078-.056c.06.06.059.157.002.215l.424.424a.753.753 0 0 0-.001-1.063l-.425.424zm.002.214a.15.15 0 0 1-.108.045v.6a.75.75 0 0 0 .532-.22l-.424-.425zm-.108.045a.146.146 0 0 1-.105-.043l-.424.424c.19.191.416.219.53.219v-.6zm-.105-.043c-.008-.01-.016-.016-.02-.018 0-.002-.002-.003-.002-.002l.005.003c.008.008.045.04.073.094l-.537.268c.027.055.065.087.073.094a.096.096 0 0 0 .005.004l-.002-.002a.273.273 0 0 1-.019-.017l.424-.424zm-.213-.089v.6-.6zm.212.088l-3.596-3.596-.424.424 3.596 3.596.424-.424zm-3.596-3.596c.004.004-.012-.013-.032-.028a.3.3 0 0 0-.18-.06v.6a.3.3 0 0 1-.18-.06c-.02-.016-.037-.032-.032-.028l.424-.424zm0 0v-.001l-.425.424.425-.424zm0-.001l-.032-.029-.004-.003-.415.433a.64.64 0 0 0 .017.016l.01.009c.005.004.003.002-.001-.002l.424-.424zm-.04-.035c-.01-.01-.036-.035-.062-.057l-.38.465.034.031.409-.44zm-.049-.045a3.07 3.07 0 0 0-4.247.081l.424.425a2.47 2.47 0 0 1 3.416-.065l.407-.44zm-4.247.082a3.071 3.071 0 0 0 0 4.335l.425-.424a2.471 2.471 0 0 1 0-3.488l-.425-.423zm0 4.335l9.873 9.873.425-.424-9.873-9.873-.424.424zm9.873 9.873c.253.253.596.395.953.395v-.6a.747.747 0 0 1-.528-.22l-.425.425zm.953.395h10.561v-.6h-10.56v.6zm10.561 0c.745 0 1.348-.604 1.348-1.348h-.6a.747.747 0 0 1-.748.748v.6zm1.348-1.348c0-.744-.603-1.348-1.348-1.348v.6c.413 0 .748.335.748.748h.6z"
              fill="#fff" mask="url(#a)"></path>
        <path opacity=".3"
              d="M11.91 34.162l-8.621-4.925a3 3 0 0 1-1.485-2.209l-.351-2.631A3 3 0 0 1 4.427 21h6.746a3 3 0 0 1 2.22.982l7.886 8.675a1.488 1.488 0 0 1-2.097 2.107l-2.601-2.341a1.62 1.62 0 0 0-2.173 2.402l4.25 3.864c.225.205.494.354.786.438 2.202.629 1.743 3.873-.546 3.873H17.5c-.368 0-3.022-3.669-4.612-5.943a3.025 3.025 0 0 0-.979-.895z"
              fill="url(#paint0_linear)"></path>
        <path opacity=".3"
              d="M42.59 19.838l8.621 4.925a3 3 0 0 1 1.485 2.209l.351 2.631A3 3 0 0 1 50.074 33h-6.747a3 3 0 0 1-2.22-.982l-7.886-8.675a1.488 1.488 0 0 1 2.097-2.107l2.601 2.341a1.62 1.62 0 0 0 2.173-2.402l-4.25-3.864a1.975 1.975 0 0 0-.786-.438c-2.202-.629-1.743-3.873.546-3.873H37c.368 0 3.022 3.669 4.612 5.943.257.367.59.672.979.895z"
              fill="url(#paint1_linear)"></path>
    </g>
    <defs>
        <linearGradient id="paint0_linear" x1="29.118" y1="14.994" x2="17.68" y2="41.296"
                        gradientUnits="userSpaceOnUse">
            <stop stop-color="#0057FF"></stop>
            <stop offset="1" stop-color="#0057FF" stop-opacity="0"></stop>
        </linearGradient>
        <linearGradient id="paint1_linear" x1="25.382" y1="39.006" x2="36.82" y2="12.704"
                        gradientUnits="userSpaceOnUse">
            <stop stop-color="#0057FF"></stop>
            <stop offset="1" stop-color="#0057FF" stop-opacity="0"></stop>
        </linearGradient>
        <clipPath id="clip0">
            <path fill="#fff" transform="translate(.5)" d="M0 0h52v52H0z"></path>
        </clipPath>
    </defs>
</svg>
