<?xml version="1.0" encoding="UTF-8"?>
<svg xmlns="http://www.w3.org/2000/svg" width="61" height="60" viewBox="0 0 61 60" fill="none">
    <path d="M27.753 28.318H14.582a3.394 3.394 0 0 0-3.322-2.691 3.388 3.388 0 0 0-3.391 3.376 3.388 3.388 0 0 0 3.391 3.376 3.394 3.394 0 0 0 3.323-2.695h13.17a6.035 6.035 0 0 0 1.645 3.495l-5.463 5.57a3.388 3.388 0 0 0-5.243 2.822 3.388 3.388 0 0 0 3.392 3.377c1.87 0 3.392-1.515 3.392-3.376 0-.688-.21-1.327-.566-1.861l5.54-5.65a6.079 6.079 0 0 0 5.38.66l9.386 9.343a3.334 3.334 0 0 0-.672 1.996 3.388 3.388 0 0 0 3.392 3.377 3.388 3.388 0 0 0 3.392-3.377 3.388 3.388 0 0 0-3.392-3.375c-.62 0-1.194.178-1.695.469l-9.11-9.07a6.059 6.059 0 0 0 2.776-5.083 6.01 6.01 0 0 0-.732-2.881l8.704-8.665a3.388 3.388 0 0 0 5.252-2.817 3.388 3.388 0 0 0-3.39-3.376c-1.871 0-3.393 1.515-3.393 3.376 0 .685.209 1.32.562 1.852l-8.538 8.498a6.093 6.093 0 0 0-3.877-2.015v-6.824a3.385 3.385 0 0 0 2.707-3.306c0-1.862-1.522-3.376-3.393-3.376a3.388 3.388 0 0 0-3.391 3.376 3.385 3.385 0 0 0 2.706 3.306v6.824c-2.815.315-5.054 2.544-5.37 5.345zM11.26 31.013a2.018 2.018 0 0 1-2.02-2.01c0-1.109.906-2.01 2.02-2.01 1.115 0 2.02.901 2.02 2.01 0 1.109-.905 2.01-2.02 2.01zM49.956 46.06c0 1.11-.906 2.011-2.02 2.011a2.018 2.018 0 0 1-2.02-2.01c0-1.11.906-2.011 2.02-2.011 1.114 0 2.02.902 2.02 2.01zm-.216-33.432c1.114 0 2.02.902 2.02 2.01 0 1.109-.906 2.01-2.02 2.01a2.018 2.018 0 0 1-2.02-2.01c0-1.108.906-2.01 2.02-2.01zM22.084 43.582a2.017 2.017 0 0 1-2.02-2.01c0-1.11.906-2.011 2.02-2.011 1.114 0 2.02.902 2.02 2.01 0 1.11-.906 2.011-2.02 2.011zm16.452-14.581c0 2.594-2.12 4.704-4.727 4.704-2.606 0-4.725-2.11-4.725-4.704s2.12-4.704 4.725-4.704c2.606 0 4.727 2.11 4.727 4.704zm-6.747-16.158c0-1.109.907-2.011 2.02-2.011 1.115 0 2.021.902 2.021 2.01 0 1.11-.906 2.011-2.02 2.011a2.017 2.017 0 0 1-2.02-2.01z"
          fill="#0057FF"></path>
    <circle opacity=".3" cx="36.5" cy="32" r="6" fill="url(#paint0_linear)"></circle>
    <defs>
        <linearGradient id="paint0_linear" x1="41.044" y1="22.396" x2="32.246" y2="35.04"
                        gradientUnits="userSpaceOnUse">
            <stop stop-color="#0057FF"></stop>
            <stop offset="1" stop-color="#0057FF" stop-opacity="0"></stop>
        </linearGradient>
    </defs>
</svg>
