<?xml version="1.0" encoding="UTF-8"?>
<svg xmlns="http://www.w3.org/2000/svg" width="61" height="60" viewBox="0 0 61 60" fill="none">
    <path d="M23.563 43.786l13.839-.017a.777.777 0 0 0 .759-.933l-1.595-7.741a.777.777 0 0 0-.76-.62H24.808a.774.774 0 0 0-.766.653l-1.246 7.759a.776.776 0 0 0 .767.899zm1.906-7.759h9.705l1.275 6.191-11.977.015.997-6.206zM30.516 31.58a4.248 4.248 0 1 0 0-8.497 4.248 4.248 0 0 0 0 8.497zm-1.907-6.155c.49-.49 1.16-.79 1.907-.79.747 0 1.417.3 1.907.79.489.49.79 1.16.79 1.907 0 .747-.301 1.416-.79 1.906-.491.49-1.16.79-1.907.79-.747 0-1.416-.3-1.907-.79-.489-.49-.79-1.16-.79-1.906 0-.748.3-1.417.79-1.907z"
          fill="#0057FF"></path>
    <mask id="a" fill="#fff">
        <path d="M14.964 53.34a.781.781 0 0 0 .776.776h29.482a.77.77 0 0 0 .549-.227.77.77 0 0 0 .227-.549V6.983a.776.776 0 1 0-1.552 0v5.77H15.739a.781.781 0 0 0-.549.227.781.781 0 0 0-.227.55v39.81h.001zm29.483-39.035v38.26H16.516v-38.26h27.93z"></path>
    </mask>
    <path d="M14.964 53.34h2v-2h-2v2zm29.482-40.587v2h2v-2h-2zM14.963 53.34h-2v2h2v-2zm29.484-39.035h2v-2h-2v2zm0 38.26v2h2v-2h-2zm-27.931 0h-2v2h2v-2zm0-38.26v-2h-2v2h2zM12.964 53.34c0 .735.294 1.444.813 1.963l2.829-2.828c.23.23.358.54.358.865h-4zm.813 1.963a2.78 2.78 0 0 0 1.963.813v-4c.326 0 .635.128.866.359l-2.829 2.828zm1.963.813h29.482v-4H15.74v4zm29.482 0a2.77 2.77 0 0 0 1.963-.813l-2.829-2.828a1.23 1.23 0 0 1 .866-.359v4zm1.963-.813a2.77 2.77 0 0 0 .813-1.962h-4c0-.324.13-.638.358-.866l2.829 2.828zm.813-1.962V19.736h-4v33.605h4zm0-33.605h-4 4zm0 0V6.983h-4v12.753h4zm0-12.753a2.776 2.776 0 0 0-2.776-2.776v4a1.224 1.224 0 0 1-1.224-1.224h4zm-2.776-2.776a2.776 2.776 0 0 0-2.776 2.776h4c0 .676-.548 1.224-1.224 1.224v-4zm-2.776 2.776v5.77h4v-5.77h-4zm2 3.77H15.739v4h28.707v-4zm-28.707 0a2.78 2.78 0 0 0-1.963.813l2.829 2.829c-.23.23-.54.358-.866.358v-4zm-1.963.813a2.781 2.781 0 0 0-.813 1.963h4c0 .326-.127.635-.358.866l-2.829-2.829zm-.813 1.963V53.34h4V13.53h-4zm2 41.811h.001v-4 4zm27.484-41.035v5.431h4v-5.431h-4zm0 5.431v32.829h4V19.736h-4zm2 30.829H16.516v4h27.93v-4zm-25.931 2v-38.26h-4v38.26h4zm-2-36.26h27.93v-4h-27.93v4z"
          fill="#0057FF" mask="url(#a)"></path>
    <path opacity=".3" fill="url(#paint0_linear)" d="M19.5 17h31v41h-31z"></path>
    <defs>
        <linearGradient id="paint0_linear" x1="46.74" y1="4.688" x2="14.791" y2="39.402" gradientUnits="userSpaceOnUse">
            <stop stop-color="#0057FF"></stop>
            <stop offset="1" stop-color="#0057FF" stop-opacity="0"></stop>
        </linearGradient>
    </defs>
</svg>
