<?xml version="1.0" encoding="UTF-8"?>
<svg xmlns="http://www.w3.org/2000/svg" width="61" height="60" viewBox="0 0 61 60" fill="none">
    <mask id="a" fill="#fff">
        <path d="M29 52.425c-1.575 0-3.15-.45-4.575-1.2L12.65 44.55c-2.925-1.65-4.725-4.725-4.725-8.025v-13.05c0-3.3 1.8-6.375 4.725-8.025l11.775-6.675c2.775-1.575 6.375-1.575 9.15 0L45.35 15.45c2.925 1.65 4.725 4.725 4.725 8.025v13.05c0 3.3-1.8 6.375-4.725 8.025l-11.775 6.675c-1.425.825-3 1.2-4.575 1.2zm0-43.35c-1.35 0-2.625.375-3.825.975L13.4 16.725c-2.4 1.35-3.9 3.975-3.9 6.75v13.05c0 2.775 1.5 5.4 3.9 6.75l11.775 6.675c2.325 1.35 5.325 1.35 7.65 0L44.6 43.275c2.4-1.35 3.9-3.975 3.9-6.75v-13.05c0-2.775-1.5-5.4-3.9-6.75L32.825 10.05c-1.2-.6-2.475-.975-3.825-.975z"></path>
    </mask>
    <path d="M24.425 51.225l-1.973 3.48.054.03.056.03 1.863-3.54zM12.65 44.55l1.972-3.48-.007-.004-1.965 3.484zm0-29.1l1.965 3.484.007-.004-1.972-3.48zm11.775-6.675l1.972 3.48.002-.001-1.974-3.479zm9.15 0L31.6 12.254h.002l1.973-3.479zM45.35 15.45l-1.973 3.48.008.004 1.965-3.484zm0 29.1l-1.965-3.484-.008.004 1.973 3.48zm-11.775 6.675l-1.973-3.48-.016.01-.015.008 2.004 3.462zm-8.4-41.175l-1.789-3.578-.093.047-.09.051 1.972 3.48zM13.4 16.725l1.96 3.486.012-.006-1.972-3.48zm0 26.55l1.972-3.48-.011-.006-1.961 3.486zm11.775 6.675l2.008-3.46-.018-.01-.018-.01-1.972 3.48zm7.65 0l-1.973-3.48-.018.01-.018.01 2.009 3.46zM44.6 43.275l-1.961-3.486-.012.006 1.973 3.48zm0-26.55l-1.973 3.48.012.006 1.96-3.486zM32.825 10.05l1.972-3.48-.09-.051-.093-.047-1.79 3.578zM29 48.425c-.821 0-1.761-.24-2.712-.74l-3.726 7.08c1.899 1 4.109 1.66 6.438 1.66v-8zm-2.603-.68L14.622 41.07l-3.945 6.96 11.775 6.675 3.945-6.96zm-11.782-6.679c-1.683-.95-2.69-2.702-2.69-4.541h-8c0 4.76 2.593 9.158 6.76 11.509l3.93-6.968zm-2.69-4.541v-13.05h-8v13.05h8zm0-13.05c0-1.84 1.007-3.592 2.69-4.541l-3.93-6.968c-4.167 2.35-6.76 6.748-6.76 11.509h8zm2.697-4.545l11.775-6.675-3.945-6.96-11.775 6.675 3.945 6.96zM26.4 12.254c1.55-.88 3.65-.88 5.201 0l3.95-6.958c-4-2.27-9.1-2.27-13.1 0l3.95 6.958zm5.203 0l11.775 6.676 3.945-6.96-11.775-6.675-3.945 6.96zm11.783 6.68c1.683.95 2.69 2.702 2.69 4.541h8c0-4.76-2.593-9.158-6.76-11.509l-3.93 6.968zm2.69 4.541v13.05h8v-13.05h-8zm0 13.05c0 1.84-1.007 3.592-2.69 4.541l3.93 6.968c4.167-2.35 6.76-6.748 6.76-11.509h-8zm-2.698 4.545l-11.775 6.675 3.945 6.96 11.775-6.675-3.945-6.96zm-11.806 6.693c-.762.441-1.634.662-2.571.662v8c2.213 0 4.49-.529 6.579-1.738l-4.008-6.924zM29 5.075c-2.11 0-3.998.59-5.614 1.397l3.578 7.156c.784-.392 1.446-.553 2.036-.553v-8zM23.202 6.57l-11.775 6.675 3.945 6.96 11.775-6.675-3.945-6.96zM11.44 13.24c-3.695 2.078-5.94 6.057-5.94 10.236h8c0-1.371.757-2.642 1.862-3.264l-3.922-6.972zm-5.94 10.236v13.05h8v-13.05h-8zm0 13.05c0 4.179 2.245 8.158 5.94 10.236l3.922-6.972c-1.105-.622-1.861-1.893-1.861-3.264h-8zm5.928 10.23l11.775 6.675 3.945-6.96-11.775-6.675-3.945 6.96zm11.74 6.654c3.566 2.071 8.1 2.071 11.666 0l-4.017-6.918c-1.083.629-2.55.629-3.633 0l-4.017 6.918zm11.63.02l11.775-6.674-3.945-6.96-11.775 6.675 3.945 6.96zm11.764-6.668c3.695-2.078 5.939-6.057 5.939-10.236h-8c0 1.371-.756 2.642-1.861 3.264l3.922 6.972zM52.5 36.525v-13.05h-8v13.05h8zm0-13.05c0-4.179-2.244-8.158-5.94-10.236L42.64 20.21c1.105.622 1.86 1.893 1.86 3.264h8zm-5.928-10.23L34.797 6.57l-3.945 6.96 11.775 6.675 3.945-6.96zM34.614 6.472C32.998 5.664 31.11 5.075 29 5.075v8c.59 0 1.252.16 2.036.553l3.578-7.156z"
          fill="#0057FF" mask="url(#a)"></path>
    <path opacity=".3"
          d="M32 56.425c-1.575 0-3.15-.45-4.575-1.2L15.65 48.55c-2.925-1.65-4.725-4.725-4.725-8.025v-13.05c0-3.3 1.8-6.375 4.725-8.025l11.775-6.675c2.775-1.575 6.375-1.575 9.15 0L48.35 19.45c2.925 1.65 4.725 4.725 4.725 8.025v13.05c0 3.3-1.8 6.375-4.725 8.025l-11.775 6.675c-1.425.825-3 1.2-4.575 1.2z"
          fill="url(#paint0_linear)"></path>
    <path d="M34.7 32.4l-3.75-1.425c-.525-.15-.6-.45-.525-1.05 0 0 1.8-2.025 1.8-3.525 0-2.025-1.35-3.75-3.075-3.75s-3.075 1.725-3.075 3.825c0 1.5 1.725 3.525 1.725 3.525 0 .6-.15.9-.675 1.05l-3.825 1.5c-.525.225-1.575 1.05-1.575 1.575 0 1.125 1.125 2.1 2.1 2.1h10.35c1.725 0 2.1-2.1 2.1-2.1 0-.675-1.05-1.35-1.575-1.725z"
          fill="#0057FF"></path>
    <defs>
        <linearGradient id="paint0_linear" x1="47.962" y1="-1.869" x2="14.438" y2="43.427"
                        gradientUnits="userSpaceOnUse">
            <stop stop-color="#0057FF"></stop>
            <stop offset="1" stop-color="#0057FF" stop-opacity="0"></stop>
        </linearGradient>
    </defs>
</svg>
