<svg width="103" height="22" viewBox="0 0 103 22" fill="none" xmlns="http://www.w3.org/2000/svg">
    <path d="M0 21.466V.096h4.637v19.78l-.071 1.48-1.175.11H0z" fill="#000"/>
    <path fill-rule="evenodd" clip-rule="evenodd"
          d="M9.274.097h6.16c3.46 0 6.887.253 9.62 2.648 4.644 4.071 4.24 12.762-.554 16.507-2.922 2.284-6.676 2.252-10.222 2.221-.402-.003-.802-.007-1.198-.007h-2.768c-.052 0-.12.005-.194.01-.27.02-.64.046-.773-.12-.11-.14-.093-.403-.08-.615.005-.064.009-.124.009-.174V.097zm4.706 16.805V4.662c.34 0 .684-.007 1.03-.013 1.927-.034 3.915-.07 5.614.943 3.302 1.966 3.747 7.56.623 9.934-1.88 1.429-4.171 1.405-6.419 1.382-.284-.003-.566-.006-.848-.006z"
          fill="#000"/>
    <path d="M34.749 5.6V.482c3.67-.98 8.69-.301 9.985 3.942.191.627.323 1.28.327 1.937.004.818-.093 1.599-.437 2.351-.934 2.039-2.867 3.673-4.65 5.18-.442.374-.874.74-1.28 1.102-.192.17-.397.34-.606.511-.535.44-1.09.897-1.47 1.437h8.789v3.389c0 .06.006.143.013.237.025.327.06.79-.124.936 0 0-8.704.07-10.547.071V12.32c.169-.241.48-.447.774-.642.173-.114.34-.225.471-.338.284-.245.576-.485.868-.725.78-.642 1.566-1.288 2.227-2.041.585-.666 1.133-1.417.956-2.352-.332-1.762-2.578-2.056-3.982-1.49-.3.122-.54.308-.781.494-.17.132-.34.265-.533.374zM77.194 5.808c-.856-2.307-3.655-1.33-5.142-.485V1.866a4.36 4.36 0 0 0-.019-.317c-.028-.356-.065-.812.09-1.018.152-.2.568-.271.867-.322.063-.01.12-.02.17-.03a8.663 8.663 0 0 1 3.114-.07c3.82.6 6.747 3.668 5.92 7.704-.346 1.693-1.715 3.05-2.944 4.161-.534.483-1.062.971-1.59 1.46-.666.616-1.332 1.232-2.01 1.837-.171.153-.356.304-.543.457-.457.373-.927.758-1.256 1.214h8.859v3.32l-.071 1.203-.69.11h-9.897V12.34c.161-.266.511-.506.83-.725.154-.106.3-.207.416-.303.973-.817 1.94-1.63 2.837-2.53.546-.548 1.122-1.207 1.213-2.006.036-.316-.045-.673-.154-.968z"
          fill="#000"/>
    <path fill-rule="evenodd" clip-rule="evenodd"
          d="M49.039 3.525C50.58 1.455 52.95.428 55.442.097c.962-.128 2.028-.053 2.976.136 3.19.638 5.924 2.815 6.87 5.99.466 1.56.466 3.119.466 4.728v.112c0 1.705-.004 3.339-.536 4.98-1.038 3.2-3.995 5.416-7.285 5.859a10.82 10.82 0 0 1-3.598-.12c-3.254-.662-5.912-3.07-6.772-6.293-.37-1.388-.365-2.805-.358-4.226l.001-.545c0-2.596.225-5.034 1.833-7.193zM54.473 5c.55-.25 1.138-.33 1.73-.407 1.808-.237 3.839 1.027 4.536 2.668.456 1.073.452 2.146.448 3.275v.321c0 .234.005.472.01.71.02.76.038 1.533-.126 2.264-.435 1.94-1.99 3.388-3.968 3.645-2.083.27-4.156-.853-4.952-2.815-.414-1.022-.446-2.164-.446-3.25 0-2.511.134-5.216 2.768-6.41zM85.873 4.148c1.533-2.41 4.031-3.683 6.803-4.051 3.647-.484 7.503 1.358 9.253 4.604 1.022 1.896 1.059 3.925 1.059 6.017 0 .26.003.523.006.785.014 1.245.028 2.495-.276 3.71-.904 3.617-3.863 6.192-7.55 6.689-1.194.16-2.419.121-3.6-.12-3.464-.706-6.072-3.363-6.859-6.777-.282-1.225-.276-2.5-.27-3.756l.001-.531c0-2.287.168-4.583 1.433-6.57zm5.765.892c.574-.262 1.18-.367 1.8-.448 1.978-.26 3.897 1.128 4.645 2.875.416.972.412 2.038.407 3.077v.312c0 2.511-.183 5.028-2.769 6.24a4.553 4.553 0 0 1-1.384.38c-2.163.265-4.266-.96-5.004-3.024-.331-.927-.328-1.875-.326-2.84l.001-.272c0-2.42.047-5.122 2.63-6.3z"
          fill="#000"/>
</svg>
