<?xml version="1.0" encoding="UTF-8"?>
<svg xmlns="http://www.w3.org/2000/svg" width="46" height="45" viewBox="0 0 46 45" fill="none">
    <g clip-path="url(#clip0)">
        <path d="M19.375 17.625h7.25c.69 0 1.25.56 1.25 1.25v7.25c0 .69-.56 1.25-1.25 1.25h-7.25c-.69 0-1.25-.56-1.25-1.25v-7.25c0-.69.56-1.25 1.25-1.25zM2.5.75h7.25C10.44.75 11 1.31 11 2v7.25c0 .69-.56 1.25-1.25 1.25H2.5c-.69 0-1.25-.56-1.25-1.25V2c0-.69.56-1.25 1.25-1.25zM19.375 34.5h7.25c.69 0 1.25.56 1.25 1.25V43c0 .69-.56 1.25-1.25 1.25h-7.25c-.69 0-1.25-.56-1.25-1.25v-7.25c0-.69.56-1.25 1.25-1.25zM2.5 17.625h7.25c.69 0 1.25.56 1.25 1.25v7.25c0 .69-.56 1.25-1.25 1.25H2.5c-.69 0-1.25-.56-1.25-1.25v-7.25c0-.69.56-1.25 1.25-1.25zM2.5 34.5h7.25c.69 0 1.25.56 1.25 1.25V43c0 .69-.56 1.25-1.25 1.25H2.5c-.69 0-1.25-.56-1.25-1.25v-7.25c0-.69.56-1.25 1.25-1.25zM36.25.75h7.25c.69 0 1.25.56 1.25 1.25v7.25c0 .69-.56 1.25-1.25 1.25h-7.25c-.69 0-1.25-.56-1.25-1.25V2c0-.69.56-1.25 1.25-1.25zM19.375.75h7.25c.69 0 1.25.56 1.25 1.25v7.25c0 .69-.56 1.25-1.25 1.25h-7.25c-.69 0-1.25-.56-1.25-1.25V2c0-.69.56-1.25 1.25-1.25zM36.25 17.625h7.25c.69 0 1.25.56 1.25 1.25v7.25c0 .69-.56 1.25-1.25 1.25h-7.25c-.69 0-1.25-.56-1.25-1.25v-7.25c0-.69.56-1.25 1.25-1.25zM36.25 34.5h7.25c.69 0 1.25.56 1.25 1.25V43c0 .69-.56 1.25-1.25 1.25h-7.25c-.69 0-1.25-.56-1.25-1.25v-7.25c0-.69.56-1.25 1.25-1.25z"
              stroke="#0057FF" stroke-width="1.5"></path>
        <path opacity=".3" fill="url(#paint0_linear)" d="M4.5 4h7v7h-7z"></path>
        <path opacity=".3" fill="url(#paint1_linear)" d="M21.5 4h7v7h-7z"></path>
        <path opacity=".3" fill="url(#paint2_linear)" d="M38.5 4h7v7h-7z"></path>
        <path opacity=".3" fill="url(#paint3_linear)" d="M4.5 21h7v7h-7z"></path>
        <path opacity=".3" fill="url(#paint4_linear)" d="M21.5 21h7v7h-7z"></path>
        <path opacity=".3" fill="url(#paint5_linear)" d="M38.5 21h7v7h-7z"></path>
        <path opacity=".3" fill="url(#paint6_linear)" d="M4.5 38h7v7h-7z"></path>
        <path opacity=".3" fill="url(#paint7_linear)" d="M21.5 38h7v7h-7z"></path>
        <path opacity=".3" fill="url(#paint8_linear)" d="M38.5 38h7v7h-7z"></path>
    </g>
    <defs>
        <linearGradient id="paint0_linear" x1="10.651" y1="1.898" x2="5.519" y2="9.273" gradientUnits="userSpaceOnUse">
            <stop stop-color="#0057FF"></stop>
            <stop offset="1" stop-color="#0057FF" stop-opacity="0"></stop>
        </linearGradient>
        <linearGradient id="paint1_linear" x1="27.651" y1="1.898" x2="22.519" y2="9.273" gradientUnits="userSpaceOnUse">
            <stop stop-color="#0057FF"></stop>
            <stop offset="1" stop-color="#0057FF" stop-opacity="0"></stop>
        </linearGradient>
        <linearGradient id="paint2_linear" x1="44.651" y1="1.898" x2="39.519" y2="9.273" gradientUnits="userSpaceOnUse">
            <stop stop-color="#0057FF"></stop>
            <stop offset="1" stop-color="#0057FF" stop-opacity="0"></stop>
        </linearGradient>
        <linearGradient id="paint3_linear" x1="10.651" y1="18.898" x2="5.519" y2="26.273"
                        gradientUnits="userSpaceOnUse">
            <stop stop-color="#0057FF"></stop>
            <stop offset="1" stop-color="#0057FF" stop-opacity="0"></stop>
        </linearGradient>
        <linearGradient id="paint4_linear" x1="27.651" y1="18.898" x2="22.519" y2="26.273"
                        gradientUnits="userSpaceOnUse">
            <stop stop-color="#0057FF"></stop>
            <stop offset="1" stop-color="#0057FF" stop-opacity="0"></stop>
        </linearGradient>
        <linearGradient id="paint5_linear" x1="44.651" y1="18.898" x2="39.519" y2="26.273"
                        gradientUnits="userSpaceOnUse">
            <stop stop-color="#0057FF"></stop>
            <stop offset="1" stop-color="#0057FF" stop-opacity="0"></stop>
        </linearGradient>
        <linearGradient id="paint6_linear" x1="10.651" y1="35.898" x2="5.519" y2="43.273"
                        gradientUnits="userSpaceOnUse">
            <stop stop-color="#0057FF"></stop>
            <stop offset="1" stop-color="#0057FF" stop-opacity="0"></stop>
        </linearGradient>
        <linearGradient id="paint7_linear" x1="27.651" y1="35.898" x2="22.519" y2="43.273"
                        gradientUnits="userSpaceOnUse">
            <stop stop-color="#0057FF"></stop>
            <stop offset="1" stop-color="#0057FF" stop-opacity="0"></stop>
        </linearGradient>
        <linearGradient id="paint8_linear" x1="44.651" y1="35.898" x2="39.519" y2="43.273"
                        gradientUnits="userSpaceOnUse">
            <stop stop-color="#0057FF"></stop>
            <stop offset="1" stop-color="#0057FF" stop-opacity="0"></stop>
        </linearGradient>
        <clipPath id="clip0">
            <path fill="#fff" transform="translate(.5)" d="M0 0h45v45H0z"></path>
        </clipPath>
    </defs>
</svg>
