<svg width="813" height="809" viewBox="0 0 813 809" fill="none" xmlns="http://www.w3.org/2000/svg">
    <g id="slide-2">
        <rect width="770" height="770" transform="translate(42.5)" fill="white"/>
        <g id="Group 2">
            <g id="gdr">
                <g id="Ellipse" style="mix-blend-mode:lighten" filter="url(#filter0_f)">
                    <path d="M256.992 539.698C275.973 552.04 300.476 608.022 288.009 627.194C275.543 646.365 237.007 653.057 218.026 640.714C199.045 628.372 203.805 611.629 216.271 592.458C228.738 573.286 238.011 527.355 256.992 539.698Z"
                          fill="#677B99"/>
                </g>
                <g id="Ellipse_2" style="mix-blend-mode:lighten" filter="url(#filter1_f)">
                    <path d="M237.896 524.766C256.033 536.56 273.93 561.384 262.179 579.454C250.429 597.525 247.616 629.153 229.479 617.359C211.342 605.565 172.029 554.202 183.78 536.132C195.531 518.061 219.76 512.972 237.896 524.766Z"
                          fill="#3300FF"/>
                </g>
                <g id="Ellipse_3" style="mix-blend-mode:lighten" filter="url(#filter2_f)">
                    <path d="M241.222 579.105C258.41 590.281 229.572 580.691 224.57 623.127C224.731 649.631 188.875 647.532 171.688 636.356C154.501 625.18 150.31 601.136 162.329 582.654C174.348 564.171 224.035 567.929 241.222 579.105Z"
                          fill="#0085FF"/>
                </g>
            </g>
            <circle id="Ellipse_4" cx="228.853" cy="538.353" r="121.647" fill="white"/>
        </g>
        <g id="Group 33">
            <g id="gdr_2">
                <g id="Ellipse_5" style="mix-blend-mode:lighten" filter="url(#filter3_f)">
                    <path d="M683.969 190.992C699.604 201.159 719.789 247.275 709.52 263.068C699.25 278.86 667.506 284.373 651.87 274.205C636.234 264.038 640.155 250.246 650.424 234.454C660.694 218.661 668.333 180.825 683.969 190.992Z"
                          fill="#7683B1"/>
                </g>
                <g id="Ellipse_6" style="mix-blend-mode:lighten" filter="url(#filter4_f)">
                    <path d="M668.239 178.691C683.179 188.407 697.922 208.856 688.242 223.742C678.562 238.628 676.246 264.681 661.305 254.966C646.365 245.251 613.98 202.94 623.66 188.054C633.34 173.168 653.298 168.976 668.239 178.691Z"
                          fill="#3300FF"/>
                </g>
                <g id="Ellipse_7" style="mix-blend-mode:lighten" filter="url(#filter5_f)">
                    <path d="M670.978 223.454C685.137 232.661 661.382 224.761 657.261 259.717C657.393 281.551 627.857 279.822 613.698 270.615C599.54 261.409 596.088 241.603 605.989 226.377C615.89 211.152 656.82 214.247 670.978 223.454Z"
                          fill="#0085FF"/>
                </g>
            </g>
            <circle id="Ellipse_8" cx="663.029" cy="165" r="127.471" fill="white"/>
        </g>
        <g id="grid">
            <path id="Vector 2" opacity="0.4"
                  d="M261.206 372.706L301.323 631.529L400.971 217.412L457.912 230.353L654.618 385.647M654.618 385.647L464.382 631.529M654.618 385.647L716.735 464.588"
                  stroke="#9C94D9" stroke-width="1.29412" stroke-dasharray="6.47 6.47"/>
            <path id="Vector 2_2" opacity="0.4" d="M400.971 218.706L219.794 173.412L261.206 371.412L143.441 485.294"
                  stroke="#9C94D9" stroke-width="1.29412" stroke-dasharray="6.47 6.47"/>
            <path id="Vector" opacity="0.4"
                  d="M570.5 182.471L221.088 172.118L143.441 487.882L303.912 635.412L622.265 641.882L718.029 464.588L683.088 287.294L570.5 182.471Z"
                  stroke="#9C94D9" stroke-width="1.29412" stroke-dasharray="6.47 6.47"/>
        </g>
        <g id="silos">
            <circle id="Ellipse_9" opacity="0.3" cx="226.145" cy="178.193" r="109.442" fill="url(#paint0_linear)"/>
            <g id="XMLID 2158">
                <path id="XMLID 1829" opacity="0.5"
                      d="M333.685 170.024C333.685 232.208 283.276 282.617 221.093 282.617C158.91 282.617 108.501 232.208 108.501 170.024C108.501 107.841 158.91 57.4321 221.093 57.4321C283.276 57.4321 333.685 107.841 333.685 170.024Z"
                      stroke="#0057FF" stroke-width="0.970588"/>
                <path id="Union" opacity="0.2"
                      d="M219.371 56.9412L221.229 162.168L226.736 57.0742L227.285 57.103L221.78 162.157L234.58 57.7681L235.126 57.835L222.327 162.214L242.354 58.9611L242.894 59.0658L222.859 162.358L250.059 60.7252L250.59 60.8674L223.394 162.489L257.622 62.9883L258.142 63.1672L223.918 162.654L264.972 65.8225L265.479 66.0372L224.4 162.927L272.182 69.1558L272.672 69.4055L224.919 163.12L279.107 72.9176L279.578 73.2008L225.394 163.398L285.677 77.251L286.127 77.5663L225.829 163.736L292.034 81.9412L292.461 82.2872L226.268 164.067L297.964 87.1315L298.366 87.5064L226.647 164.466L303.61 92.6789L303.985 93.0811L227.04 164.852L308.758 98.6555L309.104 99.0828L227.388 165.278L313.55 104.918L313.866 105.369L227.703 165.729L317.844 111.538L318.127 112.01L227.963 166.215L321.711 118.445L321.961 118.935L228.245 166.688L325.079 125.566L325.294 126.073L228.467 167.191L327.949 132.903L328.128 133.423L228.625 167.718L330.249 140.455L330.391 140.986L228.762 168.251L332.05 148.151L332.155 148.69L228.827 168.799L333.281 155.991L333.348 156.537L228.961 169.336L334.013 163.832L334.042 164.381L229.02 169.884L334.175 171.674L334.165 172.224L228.929 170.432L333.766 179.589L333.718 180.137L228.91 170.983L332.859 187.434L332.773 187.977L228.793 171.521L331.309 195.209L331.185 195.745L228.71 172.066L329.331 202.843L329.17 203.369L228.588 172.604L326.782 210.264L326.585 210.778L228.348 173.101L323.734 217.544L323.502 218.042L228.072 173.579L320.115 224.611L319.849 225.092L227.84 174.08L316.068 231.394L315.768 231.855L227.597 174.577L311.592 237.822L311.261 238.261L227.164 174.94L306.616 244.037L306.255 244.452L226.911 175.449L301.283 249.754L300.894 250.143L226.451 175.766L295.521 255.186L295.106 255.547L226.045 176.138L289.401 260.192L288.962 260.523L225.615 176.48L282.924 264.7L282.463 264.999L225.148 176.772L276.161 268.78L275.68 269.047L224.648 177.004L269.111 272.433L268.612 272.666L224.198 177.34L261.917 275.517L261.404 275.714L223.653 177.455L254.437 278.102L253.912 278.263L223.13 177.626L246.814 280.188L246.278 280.312L222.592 177.74L239.046 281.704L238.503 281.79L222.051 177.841L231.205 282.65L230.658 282.698L221.507 177.931L223.364 283.097L222.814 283.106L220.956 177.88L215.449 282.973L214.9 282.945L220.404 177.9L207.605 282.351L207.059 282.284L219.86 177.825L199.831 281.086L199.291 280.982L219.325 177.691L192.126 279.323L191.595 279.18L218.791 177.559L184.563 277.059L184.043 276.881L218.287 177.333L177.141 274.226L176.635 274.011L217.743 177.208L170.003 270.963L169.513 270.714L217.282 176.901L163.078 267.13L162.607 266.847L216.8 176.636L156.437 262.868L155.987 262.553L216.346 176.325L150.151 258.107L149.724 257.761L215.95 175.94L144.15 252.916L143.748 252.541L215.5 175.616L138.575 247.369L138.2 246.967L215.136 175.204L133.356 241.464L133.01 241.036L214.805 174.764L128.635 235.13L128.319 234.679L214.513 174.297L124.27 228.51L123.987 228.038L214.19 173.85L120.474 221.603L120.224 221.113L213.939 173.361L117.106 214.481L116.891 213.975L213.721 172.855L114.236 207.145L114.057 206.625L213.558 172.33L111.936 199.593L111.794 199.062L213.426 171.796L110.135 191.897L110.03 191.357L213.283 171.263L108.904 184.129L108.837 183.583L213.296 170.708L108.172 176.216L108.143 175.667L213.166 170.164L108.01 168.374L108.019 167.824L213.256 169.615L108.419 160.459L108.467 159.911L213.273 169.065L109.326 152.614L109.412 152.071L213.309 168.514L110.805 144.91L110.928 144.374L213.49 167.991L112.854 137.276L113.015 136.75L213.661 167.468L115.403 129.784L115.6 129.27L213.836 166.946L118.451 122.504L118.683 122.006L214.085 166.456L121.999 115.437L122.265 114.956L214.339 165.968L126.046 108.653L126.345 108.192L214.62 165.495L130.593 102.226L130.924 101.786L214.978 165.075L135.569 96.082L135.93 95.6669L215.311 164.636L140.902 90.2941L141.291 89.9051L215.737 164.285L146.664 84.861L147.079 84.5001L216.109 163.875L152.784 79.9269L153.223 79.5957L216.593 163.603L159.261 75.3481L159.722 75.0485L217.037 163.276L166.024 71.2679L166.505 71.0013L217.491 162.961L173.003 67.6859L173.501 67.4532L218.022 162.797L180.268 64.5311L180.781 64.3339L218.532 162.591L187.747 61.946L188.273 61.7851L219.051 162.408L195.371 59.9312L195.907 59.8074L219.577 162.245L203.068 58.4154L203.611 58.329L220.13 162.216L210.908 57.3982L211.456 57.35L220.679 162.185L218.821 56.9509L219.371 56.9412Z"
                      fill="#0057FF"/>
            </g>
        </g>
        <g id="silos_2">
            <circle id="Ellipse_10" opacity="0.3" cx="573.088" cy="186.353" r="62.1176" fill="url(#paint1_linear)"/>
            <path id="XMLID 2368" opacity="0.5"
                  d="M635.045 180.949C635.045 215.983 606.644 244.384 571.61 244.384C536.575 244.384 508.174 215.983 508.174 180.949C508.174 145.914 536.575 117.513 571.61 117.513C606.644 117.513 635.045 145.914 635.045 180.949Z"
                  stroke="#0057FF" stroke-width="0.970588"/>
            <path id="Union_2" opacity="0.2"
                  d="M570.758 117.022L571.762 171.652L574.558 117.095L575.204 117.128L572.406 171.724L579.006 117.492L579.648 117.57L573.041 171.864L583.455 118.14L584.09 118.264L573.684 171.949L587.822 119.126L588.447 119.293L574.305 172.129L592.107 120.446L592.719 120.656L574.966 172.196L596.226 122.019L596.821 122.271L575.546 172.488L600.261 123.844L600.838 124.137L576.053 172.918L604.215 126.005L604.77 126.338L576.621 173.229L608.002 128.419L608.532 128.79L577.226 173.493L611.539 131.085L612.042 131.492L577.689 173.949L614.909 134.004L615.383 134.445L578.177 174.375L618.113 137.092L618.554 137.565L578.608 174.857L621.066 140.432L621.473 140.935L578.953 175.411L623.768 144.026L624.14 144.556L579.331 175.936L626.22 147.788L626.553 148.343L579.767 176.429L628.421 151.636L628.715 152.213L580.075 176.998L630.287 155.653L630.54 156.248L580.211 177.644L631.902 159.839L632.112 160.451L580.427 178.253L633.265 164.111L633.433 164.736L580.613 178.874L634.294 168.467L634.417 169.103L580.86 179.485L634.987 172.826L635.066 173.468L580.838 180.139L635.429 177.27L635.463 177.916L580.907 180.784L635.536 181.716L635.525 182.363L580.885 181.43L635.307 186.163L635.25 186.807L580.76 182.069L634.742 190.611L634.641 191.251L580.743 182.722L633.925 194.978L633.78 195.608L580.446 183.317L632.773 199.346L632.583 199.964L580.43 183.989L631.368 203.547L631.136 204.151L580.117 184.562L629.627 207.667L629.354 208.253L579.79 185.123L627.634 211.703L627.32 212.269L579.66 185.791L625.388 215.49L625.036 216.032L579.11 186.205L622.807 219.194L622.417 219.71L578.886 186.847L620.056 222.647L619.631 223.136L578.404 187.286L617.052 225.934L616.595 226.392L577.947 187.743L613.796 228.971L613.308 229.395L577.349 188.042L610.288 231.84L609.77 232.229L577 188.654L606.693 234.375L606.151 234.728L576.323 188.8L602.846 236.744L602.28 237.057L575.848 189.279L598.914 238.777L598.327 239.05L575.223 189.468L594.812 240.559L594.208 240.791L574.65 189.782L590.625 242.007L590.006 242.196L573.978 189.798L586.269 243.203L585.639 243.348L573.382 190.094L581.911 244.064L581.272 244.165L572.732 190.126L577.468 244.59L576.824 244.646L572.091 190.224L573.023 244.864L572.376 244.875L571.444 190.246L568.577 244.802L567.931 244.769L570.799 190.198L564.129 244.489L563.487 244.411L570.17 190.009L559.679 243.757L559.044 243.633L569.489 190.119L555.396 242.772L554.771 242.605L568.899 189.825L551.112 241.535L550.5 241.325L568.305 189.56L546.909 239.963L546.314 239.71L567.693 189.346L542.873 238.054L542.297 237.76L567.114 189.057L538.92 235.976L538.365 235.643L566.511 188.805L535.216 233.562L534.686 233.192L566.07 188.306L531.596 230.896L531.093 230.489L565.518 187.96L528.226 227.977L527.752 227.536L565.115 187.443L525.022 224.806L524.581 224.332L564.6 187.039L522.069 221.465L521.662 220.962L564.253 186.487L519.366 217.872L518.995 217.341L563.752 186.048L516.915 214.193L516.581 213.638L563.502 185.443L514.798 210.261L514.504 209.685L563.211 184.865L512.848 206.244L512.595 205.649L562.996 184.254L511.233 202.058L511.023 201.446L562.573 183.715L509.954 197.87L509.786 197.246L562.608 183.035L508.925 193.513L508.801 192.878L562.545 182.388L508.148 189.071L508.069 188.429L562.363 181.759L507.789 184.627L507.755 183.981L562.31 181.113L507.683 180.181L507.694 179.535L562.315 180.466L507.828 175.735L507.884 175.09L562.448 179.828L508.393 171.286L508.494 170.647L562.463 179.176L509.21 166.92L509.355 166.289L562.599 178.543L510.362 162.636L510.551 162.017L562.937 177.97L511.767 158.35L511.999 157.746L563.085 177.334L513.508 154.231L513.781 153.644L563.28 176.71L515.501 150.278L515.814 149.712L563.673 176.188L517.746 146.408L518.099 145.865L563.986 175.62L520.329 142.787L520.718 142.27L564.426 175.142L523.079 139.25L523.503 138.761L564.892 174.689L526.166 135.963L526.624 135.506L565.273 174.155L529.422 132.927L529.911 132.502L565.711 173.672L532.847 130.141L533.364 129.751L566.265 173.333L536.442 127.523L536.984 127.17L566.838 173.026L540.289 125.238L540.854 124.924L567.358 172.631L544.221 123.205L544.807 122.93L567.983 172.439L548.323 121.422L548.926 121.19L568.636 172.335L552.594 119.891L553.212 119.701L569.179 171.896L556.866 118.779L557.496 118.633L569.83 171.839L561.223 117.834L561.862 117.732L570.475 171.776L565.667 117.308L566.311 117.251L571.115 171.67L570.111 117.034L570.758 117.022Z"
                  fill="#0057FF"/>
        </g>
        <g id="silos_3">
            <path id="XMLID 3104"
                  d="M682.338 327.665C705.224 327.665 723.777 309.111 723.777 286.225C723.777 263.339 705.224 244.786 682.338 244.786C659.452 244.786 640.899 263.339 640.899 286.225C640.899 309.111 659.452 327.665 682.338 327.665Z"
                  stroke="#9C94D9" stroke-opacity="0.4" stroke-width="1.29412"/>
            <path id="Union_3" opacity="0.3"
                  d="M683.121 277.147L684.758 244.802L684.112 244.769L682.49 276.812L681.907 244.78L681.26 244.792L681.848 277.102L678.969 244.841L678.324 244.898L681.187 276.976L676.114 245.238L675.476 245.34L680.557 277.133L673.258 245.719L672.627 245.865L679.904 277.182L670.484 246.452L669.865 246.642L679.331 277.521L667.708 247.353L667.105 247.586L678.656 277.567L665.099 248.508L664.513 248.781L678.17 278.056L662.488 249.829L661.923 250.143L677.548 278.269L659.96 251.236L659.418 251.589L676.995 278.605L657.598 252.895L657.082 253.285L676.548 279.087L655.319 254.723L654.831 255.148L675.906 279.335L653.207 256.636L652.749 257.094L675.446 279.791L651.261 258.718L650.836 259.206L675.201 280.435L649.398 260.969L649.008 261.485L674.895 281.015L647.701 263.388L647.349 263.931L674.29 281.394L646.173 265.809L645.859 266.375L674.057 282.005L644.894 268.399L644.62 268.986L673.907 282.648L643.698 271.075L643.467 271.679L673.392 283.144L642.755 273.752L642.565 274.371L673.297 283.792L641.978 276.514L641.832 277.145L673.245 284.444L641.453 279.362L641.351 280.001L673.355 285.117L641.011 282.296L640.954 282.94L672.941 285.73L640.905 285.147L640.893 285.794L672.927 286.377L640.882 287.999L640.915 288.645L673.26 287.008L641.111 290.937L641.189 291.579L673.185 287.669L641.592 293.793L641.715 294.428L673.096 288.346L642.158 296.566L642.324 297.191L673.539 288.898L643.058 299.34L643.268 299.953L673.837 289.479L644.044 302.117L644.296 302.713L673.81 290.194L645.198 304.727L645.491 305.304L674.217 290.713L646.604 307.254L646.937 307.809L674.598 291.239L648.179 309.699L648.55 310.23L674.869 291.839L649.923 311.978L650.329 312.481L675.246 292.366L651.751 314.173L652.191 314.648L675.939 292.605L653.832 316.287L654.305 316.728L676.178 293.298L655.998 318.149L656.501 318.557L676.705 293.675L658.25 319.929L658.779 320.301L677.304 293.948L660.67 321.541L661.224 321.875L677.832 294.326L663.176 322.987L663.752 323.282L678.464 294.511L665.85 324.182L666.446 324.435L679.019 294.859L668.527 325.294L669.138 325.505L679.625 295.088L671.288 326.154L671.913 326.322L680.198 295.449L674.051 326.763L674.686 326.888L680.874 295.362L676.9 327.289L677.542 327.369L681.537 295.278L679.834 327.563L680.48 327.597L682.167 295.619L682.685 327.586L683.332 327.575L682.809 295.334L685.623 327.525L686.267 327.468L683.469 295.45L688.477 327.128L689.117 327.027L684.101 295.303L691.334 326.647L691.964 326.501L684.751 295.244L694.108 325.913L694.727 325.724L685.325 294.908L696.883 325.012L697.488 324.78L686.003 294.869L699.493 323.858L700.079 323.585L686.54 294.489L702.103 322.62L702.67 322.307L687.038 294.053L704.632 321.13L705.174 320.777L687.663 293.827L706.993 319.471L707.51 319.081L688.11 293.345L709.273 317.643L709.761 317.218L688.751 293.096L711.385 315.73L711.843 315.272L689.209 292.638L713.331 313.648L713.756 313.16L689.458 291.997L715.194 311.397L715.583 310.881L689.763 291.417L716.891 308.978L717.242 308.435L690.362 291.034L718.42 306.557L718.733 305.99L690.602 290.427L719.698 303.966L719.971 303.38L690.754 289.784L720.894 301.291L721.124 300.686L691.264 289.286L721.837 298.614L722.026 297.995L691.357 288.638L722.614 295.851L722.759 295.221L691.416 287.988L723.139 293.004L723.241 292.365L691.304 287.315L723.582 290.07L723.637 289.426L691.714 286.701L723.688 287.219L723.699 286.572L691.728 286.054L723.71 284.367L723.676 283.721L691.395 285.423L723.482 281.429L723.402 280.787L691.468 284.762L723.001 278.573L722.876 277.938L691.564 284.084L722.435 275.8L722.267 275.175L691.203 283.511L721.618 273.025L721.407 272.414L690.743 282.985L720.549 270.249L720.295 269.654L690.846 282.238L719.395 267.639L719.1 267.062L690.441 281.718L717.988 265.111L717.654 264.557L690.062 281.191L716.414 262.666L716.041 262.137L689.785 280.594L714.67 260.388L714.262 259.885L689.41 280.065L712.841 258.192L712.4 257.719L688.719 279.825L710.76 256.078L710.286 255.638L688.476 279.136L708.594 254.216L708.091 253.809L687.952 278.755L706.343 252.436L705.812 252.066L687.352 278.485L703.922 250.823L703.367 250.491L686.826 278.102L701.417 249.378L700.84 249.085L686.194 277.918L698.742 248.183L698.146 247.931L685.638 277.571L696.066 247.071L695.453 246.862L685.032 277.344L693.304 246.211L692.679 246.045L684.458 276.984L690.541 245.602L689.905 245.479L683.782 277.071L687.692 245.076L687.05 244.998L683.121 277.147Z"
                  fill="#0057FF"/>
        </g>
        <g id="silos_4">
            <path id="XMLID 2552"
                  d="M717.234 528.822C752.537 528.822 781.155 500.204 781.155 464.901C781.155 429.599 752.537 400.98 717.234 400.98C681.932 400.98 653.314 429.599 653.314 464.901C653.314 500.204 681.932 528.822 717.234 528.822Z"
                  stroke="#9C94D9" stroke-opacity="0.4" stroke-width="1.29412"/>
            <path id="Union_4" opacity="0.2"
                  d="M716.467 400.975L717.399 455.602L720.267 401.047L720.913 401.081L718.044 455.655L724.715 401.36L725.357 401.439L718.674 455.837L729.164 402.093L729.799 402.217L719.353 455.733L733.447 403.078L734.072 403.245L719.944 456.027L737.732 404.314L738.344 404.525L720.539 456.289L741.934 405.887L742.53 406.14L721.152 456.5L745.97 407.796L746.547 408.09L721.687 456.875L749.924 409.957L750.478 410.291L722.333 457.057L753.627 412.371L754.157 412.742L722.774 457.554L757.248 415.037L757.751 415.445L723.401 457.809L760.618 417.872L761.091 418.313L723.726 458.409L763.822 421.044L764.263 421.518L724.245 458.81L766.775 424.385L767.182 424.888L724.59 459.363L769.477 427.978L769.848 428.508L725.092 459.802L771.929 431.657L772.262 432.212L725.341 460.407L774.046 435.589L774.339 436.165L725.635 460.984L775.995 439.606L776.248 440.201L725.848 461.596L777.61 443.792L777.821 444.403L726.106 462.192L778.89 448.063L779.058 448.688L726.403 462.782L779.919 452.336L780.043 452.972L726.297 463.462L780.696 456.779L780.775 457.421L726.484 464.091L781.054 461.223L781.088 461.869L726.536 464.736L781.161 465.668L781.149 466.315L726.525 465.383L781.015 470.115L780.959 470.76L726.397 466.021L780.451 474.564L780.35 475.203L726.38 466.674L779.634 478.93L779.489 479.561L726.083 467.27L778.481 483.298L778.292 483.917L726.067 467.941L777.077 487.5L776.845 488.104L725.754 468.514L775.336 491.619L775.062 492.205L725.564 469.14L773.342 495.572L773.029 496.138L725.167 469.659L771.097 499.442L770.745 499.985L724.862 470.233L768.515 503.062L768.126 503.579L724.417 470.708L765.764 506.599L765.34 507.088L723.949 471.158L762.677 509.887L762.22 510.344L723.572 471.696L759.421 512.923L758.933 513.347L723.133 472.178L755.996 515.708L755.479 516.098L722.578 472.517L752.402 518.327L751.86 518.68L722.005 472.822L748.555 520.612L747.989 520.926L721.449 473.154L744.622 522.729L744.036 523.003L720.886 473.478L740.521 524.427L739.917 524.66L720.209 473.521L736.25 525.959L735.631 526.148L719.664 473.95L731.978 527.071L731.347 527.217L719.013 474.008L727.62 528.016L726.981 528.118L718.369 474.078L723.177 528.542L722.532 528.599L717.728 474.177L718.732 528.816L718.085 528.828L717.082 474.202L714.286 528.754L713.64 528.721L716.438 474.125L709.838 528.358L709.196 528.279L715.803 473.984L705.388 527.709L704.753 527.586L715.16 473.902L701.021 526.724L700.396 526.557L714.524 473.774L696.736 525.488L696.124 525.277L713.877 473.667L692.618 523.915L692.022 523.663L713.328 473.302L688.582 522.006L688.005 521.713L712.792 472.93L684.629 519.845L684.074 519.512L712.222 472.622L680.841 517.431L680.311 517.06L711.619 472.356L677.304 514.765L676.801 514.358L711.155 471.9L673.934 511.846L673.461 511.405L710.667 471.475L670.731 508.758L670.289 508.285L710.234 470.993L667.778 505.417L667.37 504.915L709.889 470.44L665.075 501.824L664.704 501.294L709.392 469.998L662.624 498.145L662.29 497.591L709.203 469.357L660.423 494.214L660.129 493.637L708.774 468.849L658.557 490.197L658.304 489.601L708.634 468.205L656.942 486.011L656.731 485.399L708.414 467.597L655.578 481.739L655.411 481.114L708.233 466.976L654.55 477.382L654.426 476.747L707.98 466.365L653.856 473.023L653.777 472.381L708.009 465.71L653.414 468.58L653.38 467.933L707.931 465.066L653.308 464.134L653.319 463.487L707.96 464.419L653.537 459.687L653.593 459.042L708.081 463.78L654.102 455.239L654.203 454.599L708.104 463.129L654.919 450.872L655.064 450.241L708.395 462.532L656.071 446.504L656.26 445.885L708.416 461.862L657.476 442.302L657.708 441.698L708.723 461.287L659.216 438.183L659.49 437.597L708.919 460.664L661.21 434.23L661.523 433.664L709.312 460.142L663.455 430.36L663.808 429.817L709.731 459.643L666.037 426.656L666.427 426.14L709.959 459.004L668.788 423.203L669.212 422.714L710.442 458.566L671.791 419.916L672.249 419.458L710.896 458.105L675.047 416.879L675.536 416.455L711.495 457.808L678.556 414.009L679.073 413.62L711.844 457.196L682.15 411.475L682.693 411.122L712.521 457.051L685.997 409.106L686.564 408.793L712.994 456.568L689.93 407.073L690.516 406.8L713.621 456.381L694.031 405.291L694.635 405.059L714.195 456.072L698.218 403.843L698.837 403.654L714.866 456.053L702.575 402.647L703.205 402.502L715.461 455.754L706.932 401.786L707.571 401.685L716.112 455.725L711.376 401.26L712.02 401.204L716.752 455.622L715.82 400.986L716.467 400.975Z"
                  fill="#0057FF"/>
        </g>
        <g id="silos_5">
            <circle id="Ellipse_11" opacity="0.3" cx="613.206" cy="647.059" r="97.0588" fill="url(#paint2_linear)"/>
            <path id="XMLID 2736" opacity="0.5"
                  d="M714.316 639.55C714.316 691.124 672.508 732.933 620.934 732.933C569.36 732.933 527.551 691.124 527.551 639.55C527.551 587.976 569.36 546.168 620.934 546.168C672.508 546.168 714.316 587.976 714.316 639.55Z"
                  stroke="#0057FF" stroke-width="0.970588"/>
            <path id="Union_5" opacity="0.2"
                  d="M619.579 545.677L621.091 630.275L625.476 545.833L626.122 545.867L621.737 630.33L632.021 546.314L632.663 546.393L622.384 630.37L638.484 547.299L639.119 547.422L623.014 630.515L644.864 548.787L645.489 548.954L623.629 630.723L651.162 550.694L651.774 550.905L624.286 630.802L657.21 553.023L657.806 553.275L624.834 631.166L663.175 555.77L663.752 556.063L625.384 631.513L668.975 558.938L669.529 559.271L626.025 631.702L674.439 562.442L674.97 562.813L626.524 632.118L679.654 566.367L680.157 566.774L627.016 632.538L684.618 570.628L685.091 571.069L627.393 633.083L689.331 575.309L689.773 575.782L628.003 633.399L693.626 580.16L694.034 580.663L628.291 633.999L697.587 585.431L697.959 585.961L628.769 634.454L701.129 590.871L701.463 591.426L628.964 635.092L704.337 596.648L704.631 597.225L629.406 635.593L707.125 602.511L707.379 603.106L629.57 636.226L709.495 608.626L709.706 609.238L629.752 636.848L711.446 614.911L711.614 615.536L629.963 637.461L712.978 621.281L713.102 621.916L630.106 638.092L714.007 627.737L714.086 628.379L630.141 638.74L714.617 634.278L714.651 634.924L630.204 639.385L714.723 640.821L714.712 641.468L630.185 640.031L714.41 647.365L714.354 648.01L630.181 640.681L713.594 653.827L713.493 654.466L630.01 641.309L712.442 660.291L712.296 660.921L629.908 641.949L710.702 666.588L710.513 667.207L629.691 642.56L708.626 672.803L708.395 673.407L629.429 643.152L706.046 678.851L705.773 679.438L629.17 643.745L703.131 684.734L702.817 685.3L628.883 644.326L699.795 690.366L699.442 690.908L628.51 644.855L696.038 695.747L695.649 696.264L628.193 645.426L691.945 700.794L691.521 701.283L627.734 645.885L687.516 705.591L687.059 706.049L627.222 646.288L682.75 710.138L682.262 710.562L626.755 646.737L677.647 714.266L677.13 714.655L626.239 647.127L672.291 718.059L671.749 718.411L625.709 647.499L666.683 721.434L666.117 721.747L625.181 647.881L660.905 724.39L660.318 724.663L624.543 648.046L654.874 727.011L654.27 727.243L623.951 648.308L648.674 729.13L648.055 729.319L623.315 648.44L642.304 730.829L641.674 730.975L622.714 648.715L635.933 732.11L635.294 732.211L622.054 648.682L629.393 732.971L628.748 733.027L621.415 648.802L622.851 733.329L622.204 733.34L620.768 648.825L616.308 733.268L615.661 733.234L620.117 648.879L609.847 732.703L609.204 732.624L619.498 648.608L603.3 731.719L602.665 731.595L618.845 648.578L596.92 730.231L596.295 730.063L618.202 648.477L590.706 728.323L590.094 728.112L617.618 648.186L584.574 725.995L583.978 725.742L617.024 647.928L578.609 723.248L578.032 722.954L616.429 647.671L572.893 720.08L572.339 719.746L615.896 647.302L567.344 716.575L566.814 716.204L615.332 646.98L562.13 712.651L561.627 712.243L614.843 646.556L557.166 708.39L556.693 707.948L614.356 646.129L552.536 703.792L552.095 703.319L613.931 645.64L548.241 698.857L547.834 698.355L613.582 645.091L544.281 693.586L543.91 693.056L613.146 644.606L540.655 688.146L540.321 687.591L612.806 644.055L537.447 682.453L537.153 681.876L612.555 643.457L534.658 676.506L534.405 675.911L612.288 642.867L532.288 670.391L532.078 669.779L612.106 642.246L530.337 664.106L530.17 663.481L611.877 641.637L528.889 657.736L528.766 657.101L611.776 640.998L527.777 651.28L527.698 650.638L611.714 640.353L527.251 644.739L527.217 644.093L611.661 639.708L527.06 638.196L527.072 637.549L611.673 639.061L527.373 631.652L527.43 631.007L611.679 638.412L528.19 625.19L528.291 624.551L611.88 637.789L529.426 618.726L529.572 618.096L611.921 637.134L531.082 612.429L531.271 611.81L612.169 636.533L533.158 606.214L533.39 605.61L612.428 635.94L535.737 600.166L536.011 599.58L612.693 635.349L538.653 594.284L538.967 593.718L612.889 634.718L541.99 588.736L542.342 588.193L613.345 634.243L545.745 583.354L546.135 582.837L613.739 633.73L549.838 578.223L550.263 577.734L614.192 633.266L554.352 573.426L554.81 572.968L614.647 632.806L559.118 568.879L559.606 568.455L615.047 632.279L564.137 564.752L564.653 564.362L615.583 631.916L569.493 561.042L570.035 560.69L616.182 631.651L575.101 557.584L575.667 557.27L616.733 631.309L580.963 554.627L581.55 554.354L617.324 631.045L586.994 552.006L587.598 551.774L617.875 630.676L593.11 549.888L593.729 549.698L618.544 630.649L599.479 548.188L600.11 548.042L619.146 630.383L605.851 546.908L606.49 546.806L619.806 630.41L612.391 546.046L613.035 545.99L620.445 630.287L618.932 545.688L619.579 545.677Z"
                  fill="#0057FF"/>
        </g>
        <g id="silos_6">
            <path id="XMLID 2920"
                  d="M300.911 715.384C346.822 715.384 384.041 678.165 384.041 632.253C384.041 586.341 346.822 549.123 300.911 549.123C254.999 549.123 217.78 586.341 217.78 632.253C217.78 678.165 254.999 715.384 300.911 715.384Z"
                  stroke="#9C94D9" stroke-opacity="0.4" stroke-width="1.29412"/>
            <path id="Union_6" opacity="0.2"
                  d="M299.724 549.116L301.066 622.961L304.866 549.189L305.512 549.222L301.71 623.025L310.656 549.67L311.298 549.748L302.358 623.055L316.364 550.57L316.999 550.693L302.969 623.308L322.073 551.89L322.698 552.057L303.624 623.363L327.616 553.547L328.228 553.757L304.207 623.656L333.077 555.622L333.672 555.875L304.864 623.765L338.287 558.035L338.864 558.329L305.389 624.16L343.415 560.783L343.97 561.116L305.943 624.495L348.293 563.952L348.823 564.323L306.483 624.851L352.92 567.457L353.423 567.864L307.023 625.213L357.297 571.215L357.77 571.656L307.444 625.71L361.423 575.309L361.865 575.782L307.943 626.13L365.215 579.656L365.623 580.159L308.299 626.674L368.756 584.257L369.128 584.787L308.662 627.21L371.963 589.11L372.296 589.664L308.994 627.765L374.751 594.216L375.045 594.792L309.385 628.292L377.204 599.407L377.457 600.003L309.5 628.946L379.322 604.852L379.533 605.463L309.793 629.529L381.021 610.381L381.189 611.006L309.971 630.152L382.385 615.997L382.51 616.632L309.968 630.812L383.331 621.781L383.41 622.423L310.132 631.443L383.857 627.567L383.891 628.213L310.187 632.088L383.963 633.355L383.952 634.002L310.178 632.735L383.734 639.145L383.678 639.789L310.185 633.386L383.001 644.851L382.901 645.491L309.996 634.011L381.933 650.56L381.788 651.191L309.833 634.637L380.445 656.186L380.256 656.805L309.622 635.249L378.621 661.73L378.389 662.334L309.521 635.904L376.377 667.024L376.103 667.61L309.096 636.419L373.713 672.235L373.399 672.801L308.919 637.061L370.796 677.196L370.444 677.738L308.451 637.529L367.459 681.99L367.07 682.507L308.059 638.044L363.786 686.534L363.361 687.022L307.737 638.621L359.859 690.744L359.402 691.201L307.28 639.079L355.68 694.703L355.192 695.128L306.702 639.401L351.165 698.411L350.648 698.801L306.231 639.851L346.396 701.701L345.854 702.054L305.684 640.197L341.459 704.741L340.893 705.054L305.105 640.486L336.268 707.361L335.682 707.635L304.541 640.809L330.992 709.731L330.388 709.963L303.908 640.964L325.463 711.598L324.844 711.787L303.334 641.301L319.933 713.129L319.302 713.275L302.678 641.338L314.233 714.242L313.594 714.343L302.032 641.395L308.447 715.02L307.803 715.076L301.394 641.52L302.66 715.294L302.013 715.305L300.747 641.535L296.872 715.232L296.226 715.198L300.102 641.469L291.082 714.752L290.439 714.673L299.454 641.442L285.374 713.851L284.739 713.728L298.838 641.22L279.665 712.615L279.04 712.447L298.2 641.101L274.122 710.875L273.51 710.664L297.548 641.007L268.745 708.883L268.149 708.63L297.005 640.629L263.45 706.47L262.874 706.177L296.455 640.283L258.322 703.638L257.768 703.305L295.869 640.002L253.445 700.47L252.915 700.098L295.28 639.714L248.818 697.048L248.315 696.641L294.849 639.219L244.441 693.207L243.968 692.765L294.365 638.789L240.314 689.112L239.873 688.639L293.874 638.363L236.522 684.765L236.115 684.262L293.51 637.825L232.981 680.165L232.61 679.635L293.152 637.285L229.774 675.312L229.442 674.757L292.718 636.791L226.987 670.289L226.693 669.713L292.532 636.16L224.534 665.014L224.281 664.419L292.316 635.549L222.415 659.57L222.205 658.958L292.02 634.966L220.716 654.04L220.549 653.415L291.84 634.344L219.352 648.425L219.228 647.789L291.714 633.71L218.407 642.724L218.328 642.082L291.684 633.061L217.881 636.938L217.847 636.292L291.619 632.417L217.775 631.15L217.786 630.503L291.647 631.77L218.088 625.361L218.144 624.716L291.748 631.129L218.736 619.57L218.837 618.931L291.814 630.485L219.805 613.861L219.95 613.231L291.985 629.86L221.293 608.235L221.482 607.616L292.113 629.223L223.201 602.775L223.433 602.171L292.414 628.645L225.445 597.398L225.718 596.811L292.565 628.002L228.025 592.27L228.339 591.704L293.052 627.532L231.025 587.225L231.378 586.683L293.211 626.863L234.279 582.515L234.668 581.998L293.753 626.461L237.952 577.971L238.377 577.483L294.147 625.946L241.878 573.677L242.336 573.22L294.53 625.415L246.057 569.719L246.545 569.294L295.061 625.038L250.573 566.094L251.089 565.704L295.624 624.71L255.341 562.72L255.884 562.367L296.128 624.299L260.279 559.681L260.845 559.367L296.707 624.009L265.469 557.06L266.056 556.786L297.252 623.645L270.746 554.774L271.349 554.542L297.917 623.574L276.275 552.824L276.893 552.635L298.517 623.323L281.889 551.292L282.52 551.146L299.113 623.025L287.505 550.18L288.144 550.078L299.778 623.09L293.29 549.486L293.935 549.429L300.419 622.989L299.077 549.128L299.724 549.116Z"
                  fill="#0057FF"/>
        </g>
        <g id="silos_7">
            <path id="XMLID 3288"
                  d="M141.948 549.29C177.482 549.29 206.288 520.484 206.288 484.95C206.288 449.416 177.482 420.61 141.948 420.61C106.413 420.61 77.6074 449.416 77.6074 484.95C77.6074 520.484 106.413 549.29 141.948 549.29Z"
                  stroke="#9C94D9" stroke-opacity="0.4" stroke-width="1.29412"/>
            <path id="Union_7" opacity="0.2"
                  d="M141.097 420.688L142.103 475.775L144.98 420.761L145.626 420.795L142.758 475.655L149.428 421.074L150.07 421.152L143.387 475.839L153.877 421.807L154.513 421.93L144.034 475.899L158.245 422.791L158.87 422.959L144.67 476.029L162.529 424.028L163.141 424.238L145.265 476.289L166.732 425.601L167.327 425.853L145.817 476.643L170.852 427.51L171.428 427.803L146.427 476.872L174.805 429.67L175.36 430.004L146.997 477.18L178.592 432.084L179.122 432.456L147.599 477.448L182.129 434.751L182.632 435.158L147.984 478L185.583 437.67L186.056 438.111L148.557 478.335L188.703 440.842L189.144 441.315L148.808 478.986L191.74 444.266L192.147 444.769L149.45 479.299L194.442 447.776L194.813 448.306L149.717 479.902L196.894 451.538L197.227 452.093L150.027 480.471L199.095 455.47L199.388 456.046L150.459 480.977L200.96 459.487L201.214 460.082L150.542 481.645L202.659 463.673L202.87 464.285L150.713 482.27L203.939 468.028L204.107 468.653L150.995 482.864L204.968 472.386L205.091 473.021L151.235 483.477L205.745 476.744L205.824 477.386L151.069 484.149L206.103 481.272L206.137 481.918L151.298 484.785L206.209 485.717L206.199 486.364L151.115 485.429L206.065 490.248L206.008 490.893L151.158 486.083L205.5 494.697L205.398 495.336L151.142 486.735L204.683 499.063L204.538 499.694L150.845 487.331L203.53 503.431L203.341 504.05L150.674 487.955L202.126 507.717L201.894 508.321L150.516 488.588L200.385 511.836L200.111 512.422L150.25 489.177L198.308 515.789L197.994 516.355L149.917 489.733L196.062 519.659L195.71 520.202L149.496 490.231L193.48 523.363L193.091 523.88L149.167 490.793L190.73 526.9L190.305 527.389L148.698 491.243L187.642 530.187L187.185 530.645L148.322 491.782L184.386 533.224L183.898 533.648L147.723 492.079L180.877 536.093L180.361 536.483L147.316 492.615L177.283 538.712L176.741 539.065L146.743 492.92L173.436 540.996L172.87 541.311L146.111 493.116L169.42 543.114L168.833 543.387L145.585 493.519L165.318 544.896L164.714 545.128L144.953 493.676L161.047 546.344L160.429 546.533L144.378 494.01L156.775 547.54L156.145 547.686L143.706 493.978L152.334 548.401L151.694 548.502L143.08 494.161L147.89 549.01L147.246 549.067L142.442 494.29L143.446 549.201L142.799 549.212L141.792 494.126L138.915 549.139L138.269 549.106L141.138 494.244L134.467 548.826L133.825 548.748L140.508 494.063L130.018 548.094L129.383 547.97L139.861 494L125.651 547.109L125.026 546.942L139.226 493.871L121.366 545.872L120.754 545.662L138.631 493.612L117.164 544.299L116.568 544.047L138.078 493.258L113.044 542.391L112.467 542.097L137.47 493.026L109.09 540.23L108.536 539.896L136.898 492.721L105.303 537.816L104.773 537.445L136.295 492.454L101.766 535.149L101.263 534.742L135.912 491.899L98.3122 532.231L97.8389 531.789L135.337 491.566L95.1925 529.059L94.7508 528.586L134.992 491.003L92.1555 525.718L91.7482 525.216L134.555 490.525L89.4532 522.125L89.0819 521.595L134.178 489.999L87.0015 518.362L86.6681 517.808L133.87 489.429L84.8008 514.431L84.5071 513.854L133.5 488.891L82.851 510.414L82.5979 509.818L133.287 488.279L81.236 506.227L81.0251 505.616L133.026 487.685L79.9563 501.956L79.7882 501.331L133.059 487.005L78.9273 497.515L78.804 496.88L132.666 486.423L78.1504 493.156L78.071 492.514L132.823 485.751L77.7921 488.629L77.7583 487.983L132.595 485.115L77.6858 484.183L77.6968 483.536L132.783 484.471L77.8308 479.652L77.8873 479.008L132.734 483.817L78.3957 475.204L78.497 474.565L132.761 483.166L79.2126 470.837L79.3578 470.206L133.045 482.568L80.3651 466.469L80.5542 465.85L133.219 481.944L81.7696 462.184L82.0016 461.58L133.385 481.315L83.5106 458.064L83.7841 457.478L133.642 480.721L85.5876 454.112L85.901 453.546L133.982 480.17L87.8333 450.241L88.1853 449.698L134.398 479.668L90.4151 446.537L90.8044 446.021L134.73 479.109L93.1657 443L93.5901 442.511L135.196 478.656L96.253 439.713L96.7105 439.255L135.573 478.118L99.5092 436.677L99.9973 436.252L136.173 477.822L103.018 433.807L103.535 433.417L136.578 477.284L106.612 431.188L107.155 430.836L137.153 476.981L110.459 428.904L111.025 428.59L137.785 476.786L114.476 426.786L115.062 426.513L138.282 476.322L118.577 425.088L119.181 424.856L138.961 476.284L122.848 423.557L123.467 423.368L139.517 475.891L127.12 422.361L127.751 422.215L140.189 475.923L131.562 421.5L132.201 421.398L140.815 475.741L136.005 420.89L136.65 420.833L141.453 475.609L140.45 420.7L141.097 420.688Z"
                  fill="#0057FF"/>
        </g>
        <g id="rays">
            <path id="Vector_2" opacity="0.44" d="M443.676 459.412L219.794 169.529L505.794 386.941L443.676 459.412Z"
                  fill="url(#paint3_linear)"/>
            <path id="Vector_3" opacity="0.44" d="M482.5 469.765L137.871 489.256L468.265 376.588L482.5 469.765Z"
                  fill="url(#paint4_linear)"/>
            <path id="Vector_4" opacity="0.44" d="M510.971 456.824L301.323 634.472L441.088 389.529L510.971 456.824Z"
                  fill="url(#paint5_linear)"/>
            <path id="Vector_5" opacity="0.44" d="M513.558 393.412L617.088 638L442.382 455.53L513.558 393.412Z"
                  fill="url(#paint6_linear)"/>
            <path id="Vector_6" opacity="0.44" d="M428.147 405.059L572.075 178.957L518.735 445.176L428.147 405.059Z"
                  fill="url(#paint7_linear)"/>
            <path id="Vector_7" opacity="0.44" d="M490.265 367.529L718.029 464.588L469.559 481.412L490.265 367.529Z"
                  fill="url(#paint8_linear)"/>
        </g>
        <g id="center-dot">
            <g id="gdr_3">
                <g id="Ellipse_12" style="mix-blend-mode:lighten" filter="url(#filter6_f)">
                    <path d="M473.137 443.571C486.512 452.268 503.779 491.718 494.994 505.228C486.209 518.738 459.053 523.453 445.678 514.755C432.302 506.058 435.656 494.259 444.441 480.75C453.226 467.24 459.761 434.873 473.137 443.571Z"
                          fill="#FF3487"/>
                </g>
                <g id="Ellipse_13" style="mix-blend-mode:lighten" filter="url(#filter7_f)">
                    <path d="M459.681 433.048C472.462 441.359 485.073 458.852 476.792 471.586C468.512 484.32 466.53 506.608 453.749 498.297C440.968 489.986 413.265 453.791 421.546 441.057C429.826 428.323 446.9 424.737 459.681 433.048Z"
                          fill="#3300FF"/>
                </g>
                <g id="Ellipse_14" style="mix-blend-mode:lighten" filter="url(#filter8_f)">
                    <path d="M462.024 471.34C474.136 479.216 453.814 472.458 450.289 502.361C450.402 521.039 425.136 519.56 413.024 511.684C400.912 503.808 397.96 486.865 406.429 473.841C414.898 460.816 449.912 463.464 462.024 471.34Z"
                          fill="#0085FF"/>
                </g>
            </g>
            <circle id="Ellipse_15" cx="475.382" cy="423.824" r="111.941" fill="white"/>
            <g id="Ellipse_16" filter="url(#filter9_d)">
                <circle cx="475.382" cy="423.824" r="79.5882" fill="#0057FF"/>
            </g>
            <path id="Vector_8" opacity="0.2"
                  d="M538.616 379.969L538.616 379.969C539.036 381.123 539.333 382.637 539.625 384.236C539.665 384.454 539.705 384.673 539.745 384.893C540.002 386.314 540.27 387.794 540.626 389.207C541.039 390.84 541.56 392.341 542.29 393.516C543.016 394.684 543.93 395.5 545.128 395.83C546.586 396.229 547.874 395.784 548.833 394.878C549.803 393.961 550.425 392.576 550.483 391.156C550.7 385.789 548.365 379.384 546.302 374.352C540.256 359.605 527.057 344.655 511.637 339.435L511.801 338.949L511.637 339.435C498.587 335.017 485.656 332.782 472.083 336.198C470.313 336.643 465.25 338.153 461.773 340.265C460.908 340.791 460.157 341.345 459.584 341.916C459.008 342.49 458.637 343.058 458.485 343.609C458.338 344.142 458.387 344.696 458.722 345.293C459.065 345.906 459.719 346.58 460.814 347.296C461.74 347.899 463.117 348.09 464.835 347.964C466.538 347.839 468.489 347.409 470.49 346.865C471.95 346.468 473.417 346.015 474.824 345.58C475.347 345.419 475.861 345.26 476.364 345.108C478.201 344.551 479.893 344.075 481.19 343.905L538.616 379.969ZM538.616 379.969C534.497 368.661 527.087 359.87 517.636 352.644L517.324 353.052M538.616 379.969L517.324 353.052M517.324 353.052L517.636 352.644M517.324 353.052L517.636 352.644M416.589 454.454C416.589 454.454 416.589 454.454 416.589 454.454L416.085 454.554C419.953 474.142 438.291 488.66 457.779 490.001C486.818 492.005 499.67 469.013 511.831 447.256L511.832 447.256L511.832 447.255L511.832 447.255C513.212 444.785 514.584 442.331 515.969 439.932C517.401 437.452 518.95 434.968 520.509 432.468L520.509 432.467C523.762 427.25 527.06 421.959 529.439 416.479C530.706 413.56 529.032 410.043 525.696 409.666M416.589 454.454C420.408 473.792 438.534 488.162 457.814 489.488L457.814 489.488C473.789 490.591 484.794 484.053 493.521 474.288C500.49 466.49 505.98 456.669 511.368 447.031C512.752 444.555 514.13 442.09 515.525 439.675C516.96 437.188 518.517 434.69 520.08 432.184C520.926 430.828 521.773 429.469 522.603 428.108C524.974 424.221 527.222 420.295 528.967 416.275C530.116 413.628 528.585 410.51 525.638 410.176M416.589 454.454C415.079 446.798 415.31 439.747 417.18 432.187C417.242 431.938 417.302 431.688 417.362 431.438C417.692 430.062 418.02 428.696 418.619 427.568C419.301 426.283 420.311 425.358 422.095 425.189C424.611 424.951 426.682 426.726 426.91 429.24M416.589 454.454L427.422 429.194M525.638 410.176C525.638 410.176 525.638 410.176 525.638 410.176L525.696 409.666M525.638 410.176L525.696 409.666M525.638 410.176C524.379 410.034 523.042 410.731 521.648 412.115C520.267 413.486 518.925 415.44 517.67 417.585C516.419 419.725 515.271 422.027 514.274 424.078C514.091 424.453 513.913 424.821 513.741 425.178C512.975 426.761 512.309 428.138 511.781 429.054C509.812 432.464 507.893 436.148 505.92 439.937C505.394 440.947 504.864 441.965 504.328 442.987C501.787 447.833 499.12 452.763 496.133 457.388C490.162 466.633 482.877 474.719 472.677 478.508C452.527 485.996 429.954 472.632 425.295 452.107L425.295 452.107C424.293 447.687 424.121 442.802 424.934 438.33L424.934 438.33C425.128 437.264 425.486 436.109 425.84 434.967C425.974 434.533 426.108 434.1 426.232 433.675C426.694 432.095 427.032 430.588 426.91 429.24M525.696 409.666C520.932 409.128 516.263 418.782 513.274 424.963L513.274 424.963L513.274 424.964C512.509 426.545 511.854 427.899 511.336 428.797C509.361 432.217 507.435 435.915 505.462 439.705C497.439 455.111 488.626 472.035 472.498 478.027C452.659 485.398 430.391 472.236 425.796 451.994C424.808 447.636 424.64 442.821 425.439 438.422C425.628 437.388 425.971 436.28 426.321 435.15C426.945 433.137 427.59 431.053 427.422 429.194M426.91 429.24C426.91 429.24 426.91 429.24 426.91 429.24L427.422 429.194M426.91 429.24L427.422 429.194M517.636 352.644C507.989 345.269 492.974 342.359 481.19 343.905L517.636 352.644ZM473.961 361.306L473.961 361.306C454.592 365.513 439.843 381.796 427.855 396.115L428.249 396.444L427.855 396.115C426.993 397.144 426.05 398.765 425.041 400.518C424.992 400.605 424.942 400.692 424.891 400.779C423.913 402.48 422.858 404.314 421.711 405.962C420.502 407.7 419.221 409.184 417.867 410.077C416.534 410.957 415.161 411.247 413.688 410.669C412.392 410.162 411.696 409.49 411.357 408.773C411.013 408.048 410.994 407.193 411.214 406.249C411.662 404.339 413.039 402.277 414.146 400.722C414.857 399.723 415.56 398.727 416.261 397.737C421.4 390.469 426.355 383.461 432.667 377.018C446.894 362.495 465.986 349.873 486.948 350.906C493.683 351.238 499.773 353.422 506.114 355.738C518.341 360.205 528.592 373.108 532.882 385.075C533.585 387.034 535.069 391.421 535.317 395.175C535.442 397.063 535.246 398.691 534.576 399.772C534.248 400.3 533.807 400.7 533.217 400.946C532.621 401.195 531.842 401.301 530.827 401.184C529.851 401.069 529.117 400.751 528.544 400.306C527.968 399.858 527.532 399.261 527.184 398.556C526.604 397.379 526.303 395.976 525.999 394.559C525.931 394.245 525.864 393.93 525.793 393.617L525.793 393.617C524.609 388.382 522.647 383.308 519.625 378.824C509.465 363.717 491.396 357.521 473.961 361.306ZM499.529 372.741L499.529 372.741C511.329 377.563 516.899 391.153 514.022 403.186L514.022 403.186C513.383 405.859 512.202 408.386 510.821 410.861C510.131 412.098 509.394 413.316 508.652 414.533C508.562 414.681 508.471 414.828 508.381 414.976C507.73 416.042 507.079 417.108 506.463 418.175L491.529 444.042C490.378 446.034 489.272 448.068 488.164 450.103C485.846 454.361 483.526 458.623 480.799 462.524C480.025 463.631 479.031 464.457 477.951 464.832C476.885 465.203 475.702 465.149 474.485 464.446C473.712 464.001 473.201 463.453 472.882 462.836C472.562 462.215 472.421 461.495 472.437 460.687C472.47 459.056 473.138 457.132 474.128 455.133C475.114 453.143 476.39 451.132 477.585 449.336C477.933 448.814 478.275 448.308 478.602 447.825C479.388 446.662 480.083 445.634 480.534 444.852C483.165 440.296 486.031 435.817 488.912 431.316C490 429.616 491.09 427.912 492.17 426.2C496.105 419.964 499.901 413.626 502.94 406.974C505.725 400.884 507.256 393.347 503.063 387.214C498.544 380.601 491.329 378.752 483.829 378.969L483.829 378.969C468.455 379.419 455.092 391.509 446.45 402.976C445.834 403.793 445.065 405.039 444.196 406.446C443.993 406.775 443.784 407.113 443.571 407.457C442.435 409.285 441.147 411.294 439.772 413.056C438.391 414.826 436.956 416.301 435.537 417.1C434.147 417.883 432.828 417.996 431.546 417.154L431.545 417.154C430.769 416.646 430.299 416.082 430.034 415.498C429.768 414.913 429.692 414.273 429.76 413.591C429.898 412.206 430.618 410.715 431.413 409.332C434.759 403.51 438.642 397.79 443.099 392.774L442.715 392.432L443.099 392.774C457.309 376.78 478.074 363.97 499.529 372.741ZM508.82 415.243C511.135 411.453 513.5 407.58 514.522 403.305L502.473 406.761C498.621 415.192 493.541 423.128 488.485 431.029L488.485 431.03L488.485 431.03L488.485 431.03L488.485 431.03L488.485 431.03L488.485 431.03C485.602 435.535 482.726 440.028 480.089 444.595C479.647 445.361 478.969 446.363 478.189 447.517C474.532 452.926 468.628 461.658 474.228 464.891C476.922 466.447 479.58 465.164 481.221 462.818C483.963 458.895 486.307 454.588 488.633 450.316L488.634 450.315L488.634 450.315L488.634 450.315L488.634 450.315L488.634 450.314L488.634 450.314C489.738 448.286 490.838 446.266 491.974 444.299L506.908 418.432C507.52 417.371 508.168 416.311 508.819 415.245L508.819 415.245L508.819 415.244L508.82 415.244L508.82 415.244L508.82 415.243L508.82 415.243ZM545.664 408.076L545.665 408.076C547.074 408.256 547.919 408.776 548.421 409.444C548.932 410.124 549.145 411.033 549.134 412.092C549.112 414.226 548.192 416.731 547.465 418.5L547.24 419.048C542.826 429.8 538.326 440.757 532.531 450.795C531.305 452.919 530.084 455.076 528.854 457.248C524.562 464.832 520.167 472.598 515.081 479.765C508.544 488.976 500.896 497.151 490.931 502.605C484.923 505.892 477.806 507.568 471.073 508.973L471.073 508.973C465.174 510.207 459.13 510.242 453.107 509.731L453.107 509.731C425.353 507.383 402.878 485.829 396.67 459.149L396.172 459.265L396.67 459.149C394.355 449.211 394.809 438.53 397.714 428.784C397.873 428.249 398.027 427.655 398.183 427.052C398.289 426.644 398.395 426.232 398.506 425.83C398.786 424.811 399.103 423.806 399.527 422.911C400.368 421.133 401.588 419.849 403.727 419.702C405.134 419.608 406.258 420.192 407.016 421.132C407.784 422.082 408.182 423.406 408.078 424.763L408.078 424.764C407.927 426.767 407.343 428.809 406.697 430.907C406.626 431.136 406.555 431.365 406.484 431.595C405.906 433.457 405.315 435.361 405.012 437.252L405.52 437.333L405.012 437.252C403.688 445.546 404.568 453.456 406.726 461.466C414.532 490.453 447.088 507.472 475.443 498.629L475.29 498.139L475.443 498.629C499.652 491.076 513.003 469.767 523.569 448.183C524.343 446.602 525.245 445.092 526.161 443.561C526.357 443.233 526.553 442.904 526.749 442.574C527.855 440.709 528.935 438.795 529.736 436.726C531.231 432.86 532.951 429.097 534.703 425.331C534.91 424.885 535.117 424.44 535.325 423.994C536.871 420.675 538.424 417.342 539.839 413.942C539.917 413.755 539.994 413.566 540.072 413.377C540.613 412.059 541.164 410.717 541.953 409.69C542.396 409.113 542.898 408.66 543.49 408.376C544.077 408.094 544.783 407.963 545.664 408.076ZM439.839 440.645L439.839 440.645C441.668 425.337 450.032 409.818 461.519 399.57C468.508 393.335 477.983 388.999 487.28 391.799C490.402 392.741 492.149 394.855 492.94 397.425C493.737 400.019 493.559 403.088 492.767 405.856C491.214 411.286 488.219 416.761 484.876 422.14C483.55 424.274 482.164 426.401 480.795 428.501C478.733 431.665 476.71 434.769 474.99 437.747C474.521 438.561 474.019 439.583 473.483 440.676C473.395 440.855 473.306 441.037 473.216 441.219C472.575 442.523 471.878 443.907 471.105 445.199C470.33 446.492 469.489 447.672 468.567 448.576C467.645 449.48 466.667 450.083 465.618 450.272L465.709 450.778L465.618 450.273C463.861 450.59 462.784 450.307 462.135 449.784C461.481 449.258 461.141 448.394 461.069 447.289C460.923 445.062 461.893 442.201 462.869 440.509C462.869 440.509 462.869 440.509 462.869 440.509L480.057 410.738C480.225 410.448 480.43 410.107 480.654 409.732C481.032 409.103 481.466 408.379 481.874 407.648C482.531 406.468 483.17 405.182 483.5 404.025C483.818 402.91 483.909 401.702 483.148 400.901C482.395 400.107 481.023 399.946 479.061 400.317C471.652 401.716 465.727 406.626 461.12 412.717C456.511 418.81 453.185 426.131 450.979 432.454C448.847 438.565 447.456 445.361 449.958 451.753C451.255 455.071 453.859 456.225 456.334 457.145C456.54 457.221 456.745 457.296 456.947 457.37C459.226 458.205 461.256 458.948 462.447 460.974C463.423 462.636 463.177 464.314 462.255 465.567C461.322 466.835 459.692 467.665 457.915 467.553L457.883 468.066L457.915 467.553C451.138 467.127 446.279 463.405 443.274 458.281C440.262 453.143 439.126 446.607 439.839 440.645Z"
                  stroke="white" stroke-width="1.02748"/>
        </g>
        <g id="siloes small">
            <g id="Group">
                <g id="Ellipse 3">
                    <circle cx="459.529" cy="231.198" r="7.56643" fill="white"/>
                    <circle cx="459.529" cy="231.198" r="7.56643" fill="url(#paint9_linear)" fill-opacity="0.5"/>
                </g>
                <circle id="Ellipse 3_2" opacity="0.5" cx="459.008" cy="230.155" r="7.56643" stroke="#0057FF"
                        stroke-width="1.29412" stroke-miterlimit="10"/>
            </g>
            <g id="Group_2">
                <g id="Ellipse 3_3">
                    <circle cx="401.575" cy="219.223" r="17.5137" fill="white"/>
                    <circle cx="401.575" cy="219.223" r="17.5137" fill="url(#paint10_linear)" fill-opacity="0.5"/>
                </g>
                <circle id="Ellipse 3_4" opacity="0.5" cx="400.367" cy="216.808" r="17.5137" stroke="#0057FF"
                        stroke-width="1.29412" stroke-miterlimit="10"/>
            </g>
            <g id="Group_3">
                <g id="Ellipse 3_5">
                    <circle cx="261.767" cy="374.388" r="16.2627" fill="white"/>
                    <circle cx="261.767" cy="374.388" r="16.2627" fill="url(#paint11_linear)" fill-opacity="0.5"/>
                </g>
                <circle id="Ellipse 3_6" opacity="0.5" cx="260.645" cy="372.145" r="16.2627" stroke="#0057FF"
                        stroke-width="1.29412" stroke-miterlimit="10"/>
            </g>
            <g id="Group 34">
                <g id="Ellipse 3_7">
                    <circle cx="655.718" cy="388.947" r="13.1353" fill="white"/>
                    <circle cx="655.718" cy="388.947" r="13.1353" fill="url(#paint12_linear)" fill-opacity="0.5"/>
                </g>
                <circle id="Ellipse 3_8" opacity="0.5" cx="654.812" cy="387.135" r="13.1353" stroke="#0057FF"
                        stroke-width="1.29412" stroke-miterlimit="10"/>
            </g>
            <g id="Group 33_2">
                <g id="Ellipse 3_9">
                    <circle cx="464.947" cy="636.044" r="14.9652" fill="white"/>
                    <circle cx="464.947" cy="636.044" r="14.9652" fill="url(#paint13_linear)" fill-opacity="0.5"/>
                </g>
                <circle id="Ellipse 3_10" opacity="0.5" cx="464.695" cy="638.662" r="14.9652" stroke="#0057FF"
                        stroke-width="1.29412" stroke-miterlimit="10"/>
            </g>
        </g>
        <g id="dots">
            <g id="Ellipse 2" filter="url(#filter10_d)">
                <circle cx="682.441" cy="286.647" r="7.11765" fill="#0057FF"/>
            </g>
            <g id="Ellipse 2_2" filter="url(#filter11_d)">
                <circle cx="620.323" cy="641.235" r="14.8824" fill="#0057FF"/>
            </g>
            <g id="Ellipse 2_3" filter="url(#filter12_d)">
                <circle cx="142.794" cy="485.941" r="11" fill="#0057FF"/>
            </g>
            <g id="Ellipse 2_4" filter="url(#filter13_d)">
                <circle cx="219.147" cy="171.471" r="18.7647" fill="#0057FF"/>
            </g>
            <g id="Ellipse 2_5" filter="url(#filter14_d)">
                <circle cx="717.382" cy="465.235" r="11" fill="#1A1D5C"/>
            </g>
            <g id="Ellipse 2_6" filter="url(#filter15_d)">
                <circle cx="300.677" cy="633.47" r="14.8824" fill="#1B1F60"/>
            </g>
            <g id="Ellipse 2_7" filter="url(#filter16_d)">
                <circle cx="571.147" cy="181.824" r="13.5882" fill="#1A1D5C"/>
            </g>
        </g>
    </g>
    <defs>
        <filter id="filter0_f" x="49.6943" y="393.569" width="408.849" height="414.875" filterUnits="userSpaceOnUse"
                color-interpolation-filters="sRGB">
            <feFlood flood-opacity="0" result="BackgroundImageFix"/>
            <feBlend mode="normal" in="SourceGraphic" in2="BackgroundImageFix" result="shape"/>
            <feGaussianBlur stdDeviation="69.8823" result="effect1_foregroundBlur"/>
        </filter>
        <filter id="filter1_f" x="20.4741" y="363.647" width="403.432" height="399.878" filterUnits="userSpaceOnUse"
                color-interpolation-filters="sRGB">
            <feFlood flood-opacity="0" result="BackgroundImageFix"/>
            <feBlend mode="normal" in="SourceGraphic" in2="BackgroundImageFix" result="shape"/>
            <feGaussianBlur stdDeviation="69.8823" result="effect1_foregroundBlur"/>
        </filter>
        <filter id="filter2_f" x="0.802689" y="404.34" width="391.747" height="394.064" filterUnits="userSpaceOnUse"
                color-interpolation-filters="sRGB">
            <feFlood flood-opacity="0" result="BackgroundImageFix"/>
            <feBlend mode="normal" in="SourceGraphic" in2="BackgroundImageFix" result="shape"/>
            <feGaussianBlur stdDeviation="69.8823" result="effect1_foregroundBlur"/>
        </filter>
        <filter id="filter3_f" x="576.705" y="124.576" width="200.316" height="219.481" filterUnits="userSpaceOnUse"
                color-interpolation-filters="sRGB">
            <feFlood flood-opacity="0" result="BackgroundImageFix"/>
            <feBlend mode="normal" in="SourceGraphic" in2="BackgroundImageFix" result="shape"/>
            <feGaussianBlur stdDeviation="32.3529" result="effect1_foregroundBlur"/>
        </filter>
        <filter id="filter4_f" x="557.179" y="108.749" width="198.87" height="213.038" filterUnits="userSpaceOnUse"
                color-interpolation-filters="sRGB">
            <feFlood flood-opacity="0" result="BackgroundImageFix"/>
            <feBlend mode="normal" in="SourceGraphic" in2="BackgroundImageFix" result="shape"/>
            <feGaussianBlur stdDeviation="32.3529" result="effect1_foregroundBlur"/>
        </filter>
        <filter id="filter5_f" x="535.634" y="151.048" width="204.504" height="190.726" filterUnits="userSpaceOnUse"
                color-interpolation-filters="sRGB">
            <feFlood flood-opacity="0" result="BackgroundImageFix"/>
            <feBlend mode="normal" in="SourceGraphic" in2="BackgroundImageFix" result="shape"/>
            <feGaussianBlur stdDeviation="32.3529" result="effect1_foregroundBlur"/>
        </filter>
        <filter id="filter6_f" x="360.841" y="374.38" width="220.542" height="224.788" filterUnits="userSpaceOnUse"
                color-interpolation-filters="sRGB">
            <feFlood flood-opacity="0" result="BackgroundImageFix"/>
            <feBlend mode="normal" in="SourceGraphic" in2="BackgroundImageFix" result="shape"/>
            <feGaussianBlur stdDeviation="32.3529" result="effect1_foregroundBlur"/>
        </filter>
        <filter id="filter7_f" x="340.25" y="353.294" width="216.724" height="214.22" filterUnits="userSpaceOnUse"
                color-interpolation-filters="sRGB">
            <feFlood flood-opacity="0" result="BackgroundImageFix"/>
            <feBlend mode="normal" in="SourceGraphic" in2="BackgroundImageFix" result="shape"/>
            <feGaussianBlur stdDeviation="32.3529" result="effect1_foregroundBlur"/>
        </filter>
        <filter id="filter8_f" x="326.388" y="381.969" width="208.49" height="210.123" filterUnits="userSpaceOnUse"
                color-interpolation-filters="sRGB">
            <feFlood flood-opacity="0" result="BackgroundImageFix"/>
            <feBlend mode="normal" in="SourceGraphic" in2="BackgroundImageFix" result="shape"/>
            <feGaussianBlur stdDeviation="32.3529" result="effect1_foregroundBlur"/>
        </filter>
        <filter id="filter9_d" x="388.029" y="342.941" width="174.706" height="174.706" filterUnits="userSpaceOnUse"
                color-interpolation-filters="sRGB">
            <feFlood flood-opacity="0" result="BackgroundImageFix"/>
            <feColorMatrix in="SourceAlpha" type="matrix" values="0 0 0 0 0 0 0 0 0 0 0 0 0 0 0 0 0 0 127 0"/>
            <feOffset dy="6.47059"/>
            <feGaussianBlur stdDeviation="3.88235"/>
            <feColorMatrix type="matrix" values="0 0 0 0 0.266376 0 0 0 0 0.516671 0 0 0 0 1 0 0 0 0.4 0"/>
            <feBlend mode="normal" in2="BackgroundImageFix" result="effect1_dropShadow"/>
            <feBlend mode="normal" in="SourceGraphic" in2="effect1_dropShadow" result="shape"/>
        </filter>
        <filter id="filter10_d" x="667.559" y="278.235" width="29.7647" height="29.7647" filterUnits="userSpaceOnUse"
                color-interpolation-filters="sRGB">
            <feFlood flood-opacity="0" result="BackgroundImageFix"/>
            <feColorMatrix in="SourceAlpha" type="matrix" values="0 0 0 0 0 0 0 0 0 0 0 0 0 0 0 0 0 0 127 0"/>
            <feOffset dy="6.47059"/>
            <feGaussianBlur stdDeviation="3.88235"/>
            <feColorMatrix type="matrix" values="0 0 0 0 0.266376 0 0 0 0 0.516671 0 0 0 0 1 0 0 0 0.4 0"/>
            <feBlend mode="normal" in2="BackgroundImageFix" result="effect1_dropShadow"/>
            <feBlend mode="normal" in="SourceGraphic" in2="effect1_dropShadow" result="shape"/>
        </filter>
        <filter id="filter11_d" x="597.676" y="625.059" width="45.2941" height="45.2941" filterUnits="userSpaceOnUse"
                color-interpolation-filters="sRGB">
            <feFlood flood-opacity="0" result="BackgroundImageFix"/>
            <feColorMatrix in="SourceAlpha" type="matrix" values="0 0 0 0 0 0 0 0 0 0 0 0 0 0 0 0 0 0 127 0"/>
            <feOffset dy="6.47059"/>
            <feGaussianBlur stdDeviation="3.88235"/>
            <feColorMatrix type="matrix" values="0 0 0 0 0.266376 0 0 0 0 0.516671 0 0 0 0 1 0 0 0 0.4 0"/>
            <feBlend mode="normal" in2="BackgroundImageFix" result="effect1_dropShadow"/>
            <feBlend mode="normal" in="SourceGraphic" in2="effect1_dropShadow" result="shape"/>
        </filter>
        <filter id="filter12_d" x="124.029" y="473.647" width="37.5294" height="37.5294" filterUnits="userSpaceOnUse"
                color-interpolation-filters="sRGB">
            <feFlood flood-opacity="0" result="BackgroundImageFix"/>
            <feColorMatrix in="SourceAlpha" type="matrix" values="0 0 0 0 0 0 0 0 0 0 0 0 0 0 0 0 0 0 127 0"/>
            <feOffset dy="6.47059"/>
            <feGaussianBlur stdDeviation="3.88235"/>
            <feColorMatrix type="matrix" values="0 0 0 0 0.266376 0 0 0 0 0.516671 0 0 0 0 1 0 0 0 0.4 0"/>
            <feBlend mode="normal" in2="BackgroundImageFix" result="effect1_dropShadow"/>
            <feBlend mode="normal" in="SourceGraphic" in2="effect1_dropShadow" result="shape"/>
        </filter>
        <filter id="filter13_d" x="192.618" y="151.412" width="53.0588" height="53.0588" filterUnits="userSpaceOnUse"
                color-interpolation-filters="sRGB">
            <feFlood flood-opacity="0" result="BackgroundImageFix"/>
            <feColorMatrix in="SourceAlpha" type="matrix" values="0 0 0 0 0 0 0 0 0 0 0 0 0 0 0 0 0 0 127 0"/>
            <feOffset dy="6.47059"/>
            <feGaussianBlur stdDeviation="3.88235"/>
            <feColorMatrix type="matrix" values="0 0 0 0 0.266376 0 0 0 0 0.516671 0 0 0 0 1 0 0 0 0.4 0"/>
            <feBlend mode="normal" in2="BackgroundImageFix" result="effect1_dropShadow"/>
            <feBlend mode="normal" in="SourceGraphic" in2="effect1_dropShadow" result="shape"/>
        </filter>
        <filter id="filter14_d" x="698.618" y="452.941" width="37.5294" height="37.5294" filterUnits="userSpaceOnUse"
                color-interpolation-filters="sRGB">
            <feFlood flood-opacity="0" result="BackgroundImageFix"/>
            <feColorMatrix in="SourceAlpha" type="matrix" values="0 0 0 0 0 0 0 0 0 0 0 0 0 0 0 0 0 0 127 0"/>
            <feOffset dy="6.47059"/>
            <feGaussianBlur stdDeviation="3.88235"/>
            <feColorMatrix type="matrix" values="0 0 0 0 0.266376 0 0 0 0 0.516671 0 0 0 0 1 0 0 0 0.4 0"/>
            <feBlend mode="normal" in2="BackgroundImageFix" result="effect1_dropShadow"/>
            <feBlend mode="normal" in="SourceGraphic" in2="effect1_dropShadow" result="shape"/>
        </filter>
        <filter id="filter15_d" x="278.029" y="617.294" width="45.2941" height="45.2941" filterUnits="userSpaceOnUse"
                color-interpolation-filters="sRGB">
            <feFlood flood-opacity="0" result="BackgroundImageFix"/>
            <feColorMatrix in="SourceAlpha" type="matrix" values="0 0 0 0 0 0 0 0 0 0 0 0 0 0 0 0 0 0 127 0"/>
            <feOffset dy="6.47059"/>
            <feGaussianBlur stdDeviation="3.88235"/>
            <feColorMatrix type="matrix" values="0 0 0 0 0.266376 0 0 0 0 0.516671 0 0 0 0 1 0 0 0 0.4 0"/>
            <feBlend mode="normal" in2="BackgroundImageFix" result="effect1_dropShadow"/>
            <feBlend mode="normal" in="SourceGraphic" in2="effect1_dropShadow" result="shape"/>
        </filter>
        <filter id="filter16_d" x="549.794" y="166.941" width="42.7059" height="42.7059" filterUnits="userSpaceOnUse"
                color-interpolation-filters="sRGB">
            <feFlood flood-opacity="0" result="BackgroundImageFix"/>
            <feColorMatrix in="SourceAlpha" type="matrix" values="0 0 0 0 0 0 0 0 0 0 0 0 0 0 0 0 0 0 127 0"/>
            <feOffset dy="6.47059"/>
            <feGaussianBlur stdDeviation="3.88235"/>
            <feColorMatrix type="matrix" values="0 0 0 0 0.266376 0 0 0 0 0.516671 0 0 0 0 1 0 0 0 0.4 0"/>
            <feBlend mode="normal" in2="BackgroundImageFix" result="effect1_dropShadow"/>
            <feBlend mode="normal" in="SourceGraphic" in2="effect1_dropShadow" result="shape"/>
        </filter>
        <linearGradient id="paint0_linear" x1="309.036" y1="3.01909" x2="148.555" y2="233.644"
                        gradientUnits="userSpaceOnUse">
            <stop stop-color="#0057FF"/>
            <stop offset="1" stop-color="#0057FF" stop-opacity="0"/>
        </linearGradient>
        <linearGradient id="paint1_linear" x1="620.136" y1="86.9269" x2="529.05" y2="217.826"
                        gradientUnits="userSpaceOnUse">
            <stop stop-color="#0057FF"/>
            <stop offset="1" stop-color="#0057FF" stop-opacity="0"/>
        </linearGradient>
        <linearGradient id="paint2_linear" x1="686.718" y1="491.705" x2="544.395" y2="696.236"
                        gradientUnits="userSpaceOnUse">
            <stop stop-color="#0057FF"/>
            <stop offset="1" stop-color="#0057FF" stop-opacity="0"/>
        </linearGradient>
        <linearGradient id="paint3_linear" x1="234.571" y1="171.414" x2="361.295" y2="439.029"
                        gradientUnits="userSpaceOnUse">
            <stop stop-color="#0057FF"/>
            <stop offset="1" stop-color="white" stop-opacity="0"/>
        </linearGradient>
        <linearGradient id="paint4_linear" x1="145.092" y1="476.226" x2="440.606" y2="457.568"
                        gradientUnits="userSpaceOnUse">
            <stop stop-color="#0057FF"/>
            <stop offset="1" stop-color="white" stop-opacity="0"/>
        </linearGradient>
        <linearGradient id="paint5_linear" x1="308.545" y1="621.443" x2="494.896" y2="506.702"
                        gradientUnits="userSpaceOnUse">
            <stop stop-color="#0057FF"/>
            <stop offset="1" stop-color="white" stop-opacity="0"/>
        </linearGradient>
        <linearGradient id="paint6_linear" x1="618.382" y1="638" x2="546.821" y2="437.473"
                        gradientUnits="userSpaceOnUse">
            <stop stop-color="#0057FF"/>
            <stop offset="1" stop-color="white" stop-opacity="0"/>
        </linearGradient>
        <linearGradient id="paint7_linear" x1="573.088" y1="178.588" x2="435.142" y2="356.204"
                        gradientUnits="userSpaceOnUse">
            <stop stop-color="#0057FF"/>
            <stop offset="1" stop-color="white" stop-opacity="0"/>
        </linearGradient>
        <linearGradient id="paint8_linear" x1="729.677" y1="465.882" x2="571.542" y2="390.497"
                        gradientUnits="userSpaceOnUse">
            <stop stop-color="#0057FF"/>
            <stop offset="1" stop-color="white" stop-opacity="0"/>
        </linearGradient>
        <linearGradient id="paint9_linear" x1="465.26" y1="219.087" x2="454.165" y2="235.032"
                        gradientUnits="userSpaceOnUse">
            <stop stop-color="#0057FF"/>
            <stop offset="1" stop-color="#0057FF" stop-opacity="0"/>
        </linearGradient>
        <linearGradient id="paint10_linear" x1="414.839" y1="191.191" x2="389.158" y2="228.097"
                        gradientUnits="userSpaceOnUse">
            <stop stop-color="#0057FF"/>
            <stop offset="1" stop-color="#0057FF" stop-opacity="0"/>
        </linearGradient>
        <linearGradient id="paint11_linear" x1="274.084" y1="348.358" x2="250.237" y2="382.628"
                        gradientUnits="userSpaceOnUse">
            <stop stop-color="#0057FF"/>
            <stop offset="1" stop-color="#0057FF" stop-opacity="0"/>
        </linearGradient>
        <linearGradient id="paint12_linear" x1="665.666" y1="367.922" x2="646.405" y2="395.602"
                        gradientUnits="userSpaceOnUse">
            <stop stop-color="#0057FF"/>
            <stop offset="1" stop-color="#0057FF" stop-opacity="0"/>
        </linearGradient>
        <linearGradient id="paint13_linear" x1="476.281" y1="612.091" x2="454.337" y2="643.626"
                        gradientUnits="userSpaceOnUse">
            <stop stop-color="#0057FF"/>
            <stop offset="1" stop-color="#0057FF" stop-opacity="0"/>
        </linearGradient>
    </defs>
</svg>
