<?xml version="1.0" encoding="UTF-8"?>
<svg xmlns="http://www.w3.org/2000/svg" width="61" height="60" viewBox="0 0 61 60" fill="none">
    <path d="M31.018 8.27C19.324 8.27 9.81 17.776 9.81 29.46c0 11.685 9.513 21.191 21.207 21.191 11.693 0 21.206-9.506 21.206-21.19 0-11.685-9.513-21.191-21.206-21.191zM10.792 29.945h7.687c.036 2.697.371 5.269.952 7.629h-6.945a20.078 20.078 0 0 1-1.694-7.629zm20.71-10.172V9.26c4.17.302 7.777 4.474 9.671 10.513h-9.67zm9.956.97c.688 2.503 1.086 5.292 1.125 8.233h-11.08v-8.234h9.955zm-10.925-.97h-9.671c1.894-6.039 5.501-10.211 9.67-10.513v10.513zm0 .97v8.233H19.452c.04-2.941.438-5.73 1.125-8.234h9.956zm-12.055 8.233h-7.686c.07-2.941.766-5.73 1.968-8.234h6.827c-.677 2.522-1.069 5.306-1.108 8.234zm.974.969h11.081v7.629H20.42c-.59-2.346-.932-4.922-.968-7.629zm11.08 8.597V49.66c-4.306-.311-8.012-4.755-9.85-11.118h9.85zm.97 0h9.85c-1.837 6.363-5.543 10.807-9.85 11.119V38.542zm0-.968v-7.629h11.082c-.037 2.707-.379 5.283-.969 7.629H31.502zm12.054-7.629h7.687a20.08 20.08 0 0 1-1.694 7.629h-6.946c.581-2.36.917-4.933.953-7.629zm0-.97c-.038-2.927-.43-5.711-1.107-8.233h6.827a20.092 20.092 0 0 1 1.967 8.234h-7.687zm5.22-9.202H42.17c-1.378-4.511-3.688-8.084-6.496-9.988 5.644 1.333 10.383 5.03 13.102 9.988zM26.361 9.785c-2.809 1.904-5.118 5.476-6.497 9.988h-6.606c2.72-4.958 7.46-8.655 13.103-9.988zM12.944 38.542h6.743c1.352 4.798 3.741 8.605 6.674 10.594-5.87-1.387-10.759-5.334-13.417-10.594zm22.73 10.594c2.933-1.989 5.322-5.796 6.674-10.594h6.742c-2.657 5.26-7.546 9.207-13.416 10.594z"
          fill="#0057FF"></path>
    <circle opacity=".3" cx="34.5" cy="33" r="21" fill="url(#paint0_linear)"></circle>
    <defs>
        <linearGradient id="paint0_linear" x1="50.405" y1="-.613" x2="19.612" y2="43.64" gradientUnits="userSpaceOnUse">
            <stop stop-color="#0057FF"></stop>
            <stop offset="1" stop-color="#0057FF" stop-opacity="0"></stop>
        </linearGradient>
    </defs>
</svg>
