<?xml version="1.0" encoding="UTF-8"?>
<svg xmlns="http://www.w3.org/2000/svg" width="48" height="47" viewBox="0 0 48 47" fill="none">
    <g clip-path="url(#clip0)">
        <path d="M24 47c-.135.001-.272-.002-.408-.004-.04.002-.083 0-.121.003a2.54 2.54 0 0 1-.241-.012c-7.807-.253-14.662-4.331-18.749-10.415a.684.684 0 0 1-.114-.17A23.366 23.366 0 0 1 .501 23.465 23.345 23.345 0 0 1 7.408 6.86C11.678 2.602 17.296.186 23.297.01c.08-.006.171-.001.241-.01.041 0 .083.001.124.003.124-.002.248-.002.372-.002A23.345 23.345 0 0 1 40.64 6.907 23.345 23.345 0 0 1 47.5 23.534a23.369 23.369 0 0 1-3.897 12.913.679.679 0 0 1-.127.19c-4.228 6.249-11.382 10.362-19.475 10.362zm-.797-1.399c.133.011.265.019.398.025 1.299-.14 2.69-2.425 3.746-6.172.233-.825.445-1.702.636-2.625l-8.995-.013c.188.924.398 1.802.628 2.627 1.008 3.614 2.33 5.87 3.587 6.158zm6.174-8.77a40.538 40.538 0 0 1-.714 2.993c-.7 2.48-1.53 4.342-2.463 5.547 3.765-.9 7.055-4.052 9.265-8.531l-6.088-.009zm-16.879-.024c1.944 3.968 4.736 6.9 7.96 8.154-.813-1.204-1.539-2.93-2.158-5.151a40.41 40.41 0 0 1-.706-2.996l-5.096-.007zm24.455.035c-1.493 3.212-3.508 5.845-5.86 7.625a22.228 22.228 0 0 0 10.552-7.618l-4.692-.007zm-30.635-.044a22.228 22.228 0 0 0 10.528 7.649c-2.346-1.787-4.353-4.426-5.837-7.642l-4.69-.007zm31.224-1.322l5.06.008a21.995 21.995 0 0 0 3.52-11.27l-6.374-.008c-.085 4.106-.88 7.951-2.206 11.27zm-7.91-.011l6.455.01c1.376-3.27 2.207-7.129 2.295-11.271l-7.8-.011c-.04 4.032-.368 7.891-.95 11.272zM18.73 35.45l9.515.013c.595-3.357.93-7.221.97-11.272l-11.423-.017c.028 4.051.353 7.917.938 11.276zm-6.85-.01l5.463.008c-.572-3.384-.89-7.243-.917-11.276l-6.809-.01c.077 4.143.897 8.004 2.263 11.278zm-6.515-.01l5.06.007c-1.318-3.323-2.1-7.17-2.174-11.277l-6.374-.008A21.99 21.99 0 0 0 5.365 35.43zM39.75 22.84l6.374.008a21.962 21.962 0 0 0-3.252-10.93l-5.14-.006c1.253 3.306 1.95 7.039 2.018 10.927zm-9.167-.014l7.8.011c-.07-3.917-.804-7.659-2.118-10.928l-6.541-.009c.536 3.298.833 7.032.86 10.926zm-12.788-.018l11.422.016c-.027-3.911-.33-7.65-.878-10.926l-9.636-.014c-.556 3.275-.87 7.013-.908 10.924zm-8.176-.012l6.81.01c.036-3.894.344-7.627.89-10.924l-5.55-.008c-1.323 3.265-2.067 7.005-2.15 10.922zm-7.74-.01l6.374.008c.079-3.888.787-7.619 2.05-10.922l-5.14-.007a21.965 21.965 0 0 0-3.284 10.92zM37.17 10.543l4.786.007a22.46 22.46 0 0 0-2.284-2.68 22.044 22.044 0 0 0-8.469-5.311c1.483 1.132 2.848 2.624 4.048 4.446a24.35 24.35 0 0 1 1.92 3.538zm-7.688-.01l6.185.008a22.68 22.68 0 0 0-1.557-2.784c-2.172-3.297-4.9-5.41-7.848-6.122.93 1.207 1.754 3.072 2.446 5.553a40.99 40.99 0 0 1 .774 3.344zm-10.528-.016l9.136.013a39.24 39.24 0 0 0-.698-2.975c-1.045-3.75-2.43-6.037-3.727-6.182a9.265 9.265 0 0 0-.4.023c-1.257.284-2.586 2.537-3.604 6.148a39.143 39.143 0 0 0-.707 2.973zm-6.585-.01l5.193.008c.23-1.185.491-2.304.784-3.342.625-2.22 1.356-3.944 2.172-5.146-2.457.947-4.722 2.892-6.583 5.7-.576.87-1.1 1.8-1.566 2.78zM6.082 10.5l4.785.006a24.3 24.3 0 0 1 1.93-3.532c1.205-1.819 2.574-3.307 4.06-4.435a22.047 22.047 0 0 0-8.484 5.288A22.4 22.4 0 0 0 6.082 10.5z"
              fill="#0057FF"></path>
        <circle opacity=".3" cx="26.5" cy="26" r="21" fill="url(#paint0_linear)"></circle>
    </g>
    <defs>
        <linearGradient id="paint0_linear" x1="42.405" y1="-7.613" x2="11.612" y2="36.64"
                        gradientUnits="userSpaceOnUse">
            <stop stop-color="#0057FF"></stop>
            <stop offset="1" stop-color="#0057FF" stop-opacity="0"></stop>
        </linearGradient>
        <clipPath id="clip0">
            <path fill="#fff" transform="translate(.5)" d="M0 0h47v47H0z"></path>
        </clipPath>
    </defs>
</svg>
